<?xml version="1.0" encoding="UTF-8"?>
<svg width="84.621" height="72.116" fill-rule="evenodd" image-rendering="optimizeQuality" shape-rendering="geometricPrecision" text-rendering="geometricPrecision" viewBox="0 0 5.91939 5.04464" xmlns="http://www.w3.org/2000/svg">
 <path d="m1.03516.04372h3.22218c.54609,0 .99144.44545.99144.99144v2.97432c0,.54599-.44545.99144-.99144.99144h-3.22218c-.54599,0-.99144-.44536-.99144-.99144v-2.97432c0-.54609.44536-.99144.99144-.99144z" fill="#00923f" stroke="#00923f" stroke-width=".08742"/>
 <path d="m5.7445 3.5138h-0.49572" fill="none" stroke="#e77817" stroke-linecap="round" stroke-width=".34975"/>
 <path d="m5.7445 3.0176h-0.49572" fill="none" stroke="#e77817" stroke-linecap="round" stroke-width=".34975"/>
 <path d="m5.7445,2.0266h-.49572" fill="none" stroke="#e77817" stroke-linecap="round" stroke-width=".34975"/>
 <path d="m5.7445 2.5219h-0.49572" fill="none" stroke="#e77817" stroke-linecap="round" stroke-width=".34975"/>
 <path d="m5.7445 1.5305h-0.49572" fill="none" stroke="#e77817" stroke-linecap="round" stroke-width=".34975"/>
 <path d="m5.7445 1.0348h-0.49572" fill="none" stroke="#e77817" stroke-linecap="round" stroke-width=".34975"/>
 <path d="m5.7445 4.0093h-0.49572" fill="none" stroke="#e77817" stroke-linecap="round" stroke-width=".34975"/>
 <path d="m4.03258,3.17018c-.24013,0-.44466-.08445-.61395-.25376s-.25376-.37382-.25376-.61395 .08445-.44422.25376-.61355 .37382-.25376.61395-.25376 .44426.08445.61355.25376 .25376.37382.25376.61355-.08445.44387-.25376.61318-.37382.25453-.61355.25453z" fill="#fff" fill-rule="nonzero" stroke="#383431" stroke-width=".08742"/>
 <path d="m4.03258,3.11253c.2233,0 .41422-.07922.57236-.2373s.2373-.34899.2373-.57276-.07922-.41422-.2373-.57231-.34906-.23735-.57236-.23735-.41462.07927-.57271.23735-.23735.34901-.23735.57231 .07922.41467.23735.57276 .34901.2373.57271.2373z" fill="#fff" fill-opacity=".50196" fill-rule="nonzero" stroke="#383431" stroke-opacity=".50196" stroke-width=".0437"/>
 <path d="m3.44265,2.59708 .03963.0692-.06885.03966-.03998-.06886z" fill="#383431" fill-rule="nonzero" stroke="#383431" stroke-width=".01889"/>
 <path d="m4.58452,1.93826 .06801-.04002 .04.06925-.06801.03963z" fill="#383431" fill-rule="nonzero" stroke="#383431" stroke-width=".01889"/>
 <path d="m4.32759,2.8924 .06801-.03958 .04.0688-.06804.04006z" fill="#383431" fill-rule="nonzero" stroke="#383431" stroke-width=".01889"/>
 <path d="m3.66753,1.75059-.03958-.06807 .06925-.03965 .03964.06808z" fill="#383431" fill-rule="nonzero" stroke="#383431" stroke-width=".01889"/>
 <path d="m3.66877,2.85282 .06926.03958-.04006.06928-.0688-.04006z" fill="#383431" fill-rule="nonzero" stroke="#383431" stroke-width=".01889"/>
 <path d="m4.32759,1.71095 .03997-.06808 .06926.03965-.04003.06923z" fill="#383431" fill-rule="nonzero" stroke="#383431" stroke-width=".01889"/>
 <path d="m4.58211,2.66628 .04001-.0692 .06927.04-.04005.06886z" fill="#383431" fill-rule="nonzero" stroke="#383431" stroke-width=".01889"/>
 <path d="m3.44146,2.00712-.06923-.03963 .04001-.06925 .06885.04002z" fill="#383431" fill-rule="nonzero" stroke="#383431" stroke-width=".01889"/>
 <path d="m3.99255,2.96046h.07967v.07967h-.07967z" fill="#383431" fill-rule="nonzero" stroke="#383431" stroke-width=".01889"/>
 <path d="m4.69139,2.3425v-.07966h.07964v.07966z" fill="#383431" fill-rule="nonzero" stroke="#383431" stroke-width=".01889"/>
 <path d="m3.37223,2.3425h-.07963v-.07966h.07963z" fill="#383431" fill-rule="nonzero" stroke="#383431" stroke-width=".01889"/>
 <path d="m3.98703,1.592h.07966v.07967h-.07966z" fill="#383431" fill-rule="nonzero" stroke="#383431" stroke-width=".01889"/>
 <path d="m4.75728,2.09784-.16729.15337-.01601-.05621-.48694.13868-.08353.02379-.08356.02379-.02379-.08352 .08355-.0238 .08353-.02379 .48695-.13871-.01579-.05539z" fill="#e77817" fill-rule="nonzero"/>
 <path d="m1.03516.29158h.99144c.40954,0 .74358.33412.74358.74358v2.97432c0,.40947-.33412.74358-.74358.74358h-.99144c-.40947,0-.74358-.33404-.74358-.74358v-2.97434c0-.40954.33404-.74355.74358-.74355z" fill="#4d4948" stroke="#4d4948" stroke-width=".17486"/>
 <path d="m0.29158 3.5138 0.95801-1.0536v0.70105l1.5206-1.6303" fill="none" stroke="#dededd" stroke-width=".26231"/>
 <path d="m1.77874.7873h.49572c.13652,0 .24786.11134.24786.24786v2.97432c0,.13652-.11134.24786-.24786.24786h-.49572c-.13652,0-.24786-.11134-.24786-.24786v-2.97432c0-.13652.11134-.24786.24786-.24786z" fill="#fff" stroke="#838281" stroke-width=".08742"/>
 <path d="m1.7787 1.7787h0.49572" fill="none" stroke="#007cc3" stroke-linecap="round" stroke-width=".17486"/>
 <path d="m1.7787 2.0266 0.24786-5e-5" fill="none" stroke="#605d5c" stroke-linecap="round" stroke-width=".17486"/>
 <path d="m1.7787 2.2745 0.24786-5e-5" fill="none" stroke="#605d5c" stroke-linecap="round" stroke-width=".17486"/>
 <path d="m1.7787 2.5222h0.49572" fill="none" stroke="#007cc3" stroke-linecap="round" stroke-width=".17486"/>
 <path d="m1.7787 2.7701 0.24786 5e-5" fill="none" stroke="#605d5c" stroke-linecap="round" stroke-width=".17486"/>
 <path d="m1.7787 3.018 0.24786 5e-5" fill="none" stroke="#605d5c" stroke-linecap="round" stroke-width=".17486"/>
 <path d="m1.7787 3.2658h0.49572" fill="none" stroke="#007cc3" stroke-linecap="round" stroke-width=".17486"/>
 <path d="m1.7787 3.5137 0.24786 5e-5" fill="none" stroke="#605d5c" stroke-linecap="round" stroke-width=".17486"/>
 <path d="m1.7787 3.7616 0.24786 5e-5" fill="none" stroke="#605d5c" stroke-linecap="round" stroke-width=".17486"/>
 <path d="m1.7787 1.0352h0.49572" fill="none" stroke="#007cc3" stroke-linecap="round" stroke-width=".17486"/>
 <path d="m1.7787 1.2831 0.24786-1e-4" fill="none" stroke="#605d5c" stroke-linecap="round" stroke-width=".17486"/>
 <path d="m1.7787 1.531 0.24786-1e-4" fill="none" stroke="#605d5c" stroke-linecap="round" stroke-width=".17486"/>
 <path d="m1.7787 4.0094h0.49572" fill="none" stroke="#007cc3" stroke-linecap="round" stroke-width=".17486"/>
</svg>
