<?xml version="1.0" encoding="UTF-8" standalone="no"?>
<svg
   width="400"
   zoomAndPan="magnify"
   viewBox="0 0 300 237.75"
   height="317"
   preserveAspectRatio="xMidYMid"
   version="1.0"
   id="svg11"

   xmlns="http://www.w3.org/2000/svg">

  <defs
     id="defs4">
    <clipPath
       id="97a08b2b00">
      <path
         d="M 244,378.48828 H 367 V 516 H 244 Z m 0,0"
         clip-rule="nonzero"
         id="path1" />
    </clipPath>
    <clipPath
       id="bc6a07737b">
      <path
         d="M 377,378.48828 H 515 V 516 H 377 Z m 0,0"
         clip-rule="nonzero"
         id="path2" />
    </clipPath>
    <clipPath
       id="5fdfec204c">
      <path
         d="m 482,514 h 84 v 119.36328 h -84 z m 0,0"
         clip-rule="nonzero"
         id="path3" />
    </clipPath>
    <clipPath
       id="b8ea39a556">
      <path
         d="M 204.99609,44.25 H 528.83594 V 287.12891 H 204.99609 Z m 0,0"
         clip-rule="nonzero"
         id="path4" />
    </clipPath>
  </defs>
  <g
     id="g11"
     transform="matrix(0.93310326,0,0,0.93310326,-227.90682,-353.16865)">
    <g
       clip-path="url(#97a08b2b00)"
       id="g5"
       style="fill:#e6e6e6;stroke:#ffffff;stroke-width:0;stroke-linecap:round;stroke-linejoin:round;stroke-dasharray:none;stroke-opacity:1">
      <path
         fill="#000000"
         d="m 311.42578,488.11328 c 14.39453,0 26.05078,-5.48437 34.96094,-17.12891 l 18.51172,19.1836 c -15.08203,17.1289 -32.22266,25.34765 -52.10157,25.34765 -19.8789,0 -36.33203,-6.16406 -49.35937,-19.18359 -13.02344,-13.01562 -19.19141,-29.46094 -19.19141,-48.64453 0,-19.86719 6.85547,-36.3125 19.87891,-49.33203 13.02344,-13.01563 29.47656,-19.86719 48.67187,-19.86719 21.25,0 39.07422,8.22266 53.47266,24.66406 l -17.82422,20.55469 c -8.91406,-11.64844 -20.5664,-17.12891 -34.27734,-17.12891 -10.96875,0 -20.56641,3.42579 -28.10547,10.96485 -7.54297,7.53515 -11.65625,17.1289 -11.65625,29.46094 0,12.33203 3.42969,21.92187 10.96875,29.46093 6.17187,7.53516 15.08203,11.64844 26.05078,11.64844 z m 0,0"
         fill-opacity="1"
         fill-rule="nonzero"
         id="path5"
         style="fill:#e6e6e6;stroke:#ffffff;stroke-width:0;stroke-linecap:round;stroke-linejoin:round;stroke-dasharray:none;stroke-opacity:1" />
    </g>
    <g
       clip-path="url(#bc6a07737b)"
       id="g6"
       style="fill:#e6e6e6;stroke:#ffffff;stroke-width:0;stroke-linecap:round;stroke-linejoin:round;stroke-dasharray:none;stroke-opacity:1">
      <path
         fill="#000000"
         d="m 494.46094,495.64844 c -13.02344,13.01562 -29.47657,19.86718 -48.67188,19.86718 -19.19531,0 -35.64844,-6.85156 -48.67187,-19.86718 -13.02735,-13.01953 -19.88282,-29.46094 -19.88282,-48.64453 0,-19.1836 6.85547,-35.62891 19.88282,-48.64844 13.02343,-13.01563 29.47656,-19.86719 48.67187,-19.86719 19.19531,0 35.64844,6.85156 48.67188,19.86719 13.02343,13.01953 19.8789,29.46484 19.8789,48.64844 0,19.18359 -6.85547,35.625 -19.8789,48.64453 z m -9.59766,-48.64453 c 0,-11.64844 -3.42578,-21.92579 -10.96875,-30.14844 -7.53906,-8.22266 -16.45312,-12.33203 -27.42187,-12.33203 -10.96875,0 -19.87891,4.10937 -27.41797,12.33203 -7.54297,8.22265 -10.96875,18.5 -10.96875,30.14844 0,11.64453 3.42578,21.92187 10.96875,30.14453 7.53906,8.22265 16.44922,12.33203 27.41797,12.33203 10.96875,0 19.88281,-4.10938 27.42187,-12.33203 6.85547,-8.22266 10.96875,-18.5 10.96875,-30.14453 z m 0,0"
         fill-opacity="1"
         fill-rule="nonzero"
         id="path6"
         style="fill:#e6e6e6;stroke:#ffffff;stroke-width:0;stroke-linecap:round;stroke-linejoin:round;stroke-dasharray:none;stroke-opacity:1" />
    </g>
    <g
       clip-path="url(#5fdfec204c)"
       id="g7"
       style="fill:#e6e6e6;stroke:#ffffff;stroke-width:0;stroke-linecap:round;stroke-linejoin:round;stroke-dasharray:none;stroke-opacity:1">
      <path
         fill="#000000"
         d="m 532.85156,562.10547 c 2.74219,-4.10938 4.11328,-8.21875 4.11328,-12.33203 0,-4.10938 -1.37109,-6.85157 -3.42968,-9.58985 -2.74219,-2.74218 -5.48438,-4.11328 -9.59766,-4.11328 -7.53906,0 -13.71094,5.48047 -20.56641,15.75781 l -20.5625,-12.33203 c 5.48438,-8.21875 10.96485,-15.07031 17.82032,-19.18359 6.17187,-4.10938 14.39843,-6.16406 24.67968,-6.16406 9.59766,0 18.51172,3.42578 26.05078,9.58984 7.53907,6.16797 10.96875,15.07422 10.96875,26.03516 0,6.16797 -1.37109,11.64843 -4.80078,17.1289 -2.74218,5.48047 -8.22656,12.33203 -16.44922,21.23828 l -20.5664,21.92579 h 45.24219 v 23.29687 h -80.89063 v -19.18359 l 33.58984,-34.94532 c 6.85547,-7.53515 11.65625,-13.01562 14.39844,-17.1289 z m 0,0"
         fill-opacity="1"
         fill-rule="nonzero"
         id="path7"
         style="fill:#e6e6e6;stroke:#ffffff;stroke-width:0;stroke-linecap:round;stroke-linejoin:round;stroke-dasharray:none;stroke-opacity:1" />
    </g>
  </g>
</svg>
