<svg xmlns="http://www.w3.org/2000/svg" xmlns:xlink="http://www.w3.org/1999/xlink" width="1080" zoomAndPan="magnify" viewBox="0 0 810 809.999993" height="1080" preserveAspectRatio="xMidYMid meet" version="1.0"><defs><clipPath id="49dd648552"><path d="M 683.105469 505.425781 L 717.367188 505.425781 L 717.367188 592.898438 L 683.105469 592.898438 Z M 683.105469 505.425781 " clip-rule="nonzero"/></clipPath></defs><path fill="#4db2b6" d="M 615.78125 809.949219 C 589.160156 569.945312 523.914062 469.796875 523.914062 469.796875 L 287.785156 469.796875 C 287.785156 469.796875 222.539062 569.945312 195.917969 809.949219 L 615.78125 809.949219 " fill-opacity="1" fill-rule="nonzero"/><path fill="#f4bea7" d="M 463.800781 482.90625 C 463.800781 500.828125 437.855469 515.359375 405.851562 515.359375 C 373.84375 515.359375 347.898438 500.828125 347.898438 482.90625 C 347.898438 464.980469 373.84375 450.453125 405.851562 450.453125 C 437.855469 450.453125 463.800781 464.980469 463.800781 482.90625 " fill-opacity="1" fill-rule="nonzero"/><path fill="#4db2b6" d="M 622.476562 642.414062 C 607.496094 498.390625 523.992188 469.796875 523.992188 469.796875 L 524.023438 469.898438 L 523.914062 469.796875 L 527.398438 654.007812 L 319.097656 639.878906 L 302.128906 696.445312 C 510.027344 788.199219 581.242188 764.546875 605.027344 731.246094 L 605.050781 731.320312 C 631.214844 701.964844 622.476562 642.414062 622.476562 642.414062 " fill-opacity="1" fill-rule="nonzero"/><path fill="#4db2b6" d="M 492.570312 639.878906 L 284.273438 654.007812 L 287.753906 469.796875 C 287.753906 469.796875 204.25 498.390625 189.269531 642.414062 C 189.269531 642.414062 180.53125 701.964844 206.695312 731.320312 C 230.535156 764.578125 301.796875 788.132812 509.539062 696.445312 L 492.570312 639.878906 " fill-opacity="1" fill-rule="nonzero"/><path fill="#f4bea7" d="M 318.082031 689.453125 C 343.789062 662.777344 327.375 628.839844 327.375 628.839844 C 325.070312 622.664062 320.0625 615.8125 310.09375 609.316406 C 298.082031 601.488281 289.070312 604.625 282.644531 610.890625 C 282.644531 610.890625 262.191406 599.433594 242.9375 621.058594 C 242.9375 621.058594 227.765625 635.097656 230.117188 652.613281 C 230.117188 652.613281 231.328125 694.664062 282.734375 701.617188 C 282.734375 701.617188 300.796875 704.734375 315.269531 692.148438 L 315.269531 692.191406 C 315.601562 691.894531 315.894531 691.585938 316.210938 691.28125 C 316.839844 690.699219 317.46875 690.105469 318.082031 689.453125 " fill-opacity="1" fill-rule="nonzero"/><path fill="#f4bea7" d="M 497.226562 689.453125 C 471.519531 662.777344 487.933594 628.839844 487.933594 628.839844 C 490.238281 622.664062 495.246094 615.8125 505.214844 609.316406 C 517.226562 601.488281 526.238281 604.625 532.664062 610.890625 C 532.664062 610.890625 553.117188 599.433594 572.367188 621.058594 C 572.367188 621.058594 587.542969 635.097656 585.1875 652.613281 C 585.1875 652.613281 583.980469 694.664062 532.574219 701.617188 C 532.574219 701.617188 514.511719 704.734375 500.039062 692.148438 L 500.039062 692.191406 C 499.707031 691.894531 499.414062 691.585938 499.097656 691.28125 C 498.46875 690.699219 497.839844 690.105469 497.226562 689.453125 " fill-opacity="1" fill-rule="nonzero"/><path fill="#428e96" d="M 526.78125 769.667969 C 495.035156 769.667969 452.191406 762.390625 395.34375 740.109375 C 398.652344 739.082031 402.019531 738.019531 405.4375 736.90625 C 412.480469 739.125 419.707031 741.292969 427.042969 743.339844 C 469.875 755.847656 503.101562 760.835938 528.851562 760.835938 C 571.480469 760.835938 593.632812 747.167969 604.996094 731.292969 C 605 731.285156 605 731.285156 605 731.285156 L 606.960938 743.816406 C 606.960938 743.816406 586.601562 769.667969 526.78125 769.667969 " fill-opacity="1" fill-rule="nonzero"/><path fill="#428e96" d="M 528.851562 760.835938 C 503.101562 760.835938 469.875 755.847656 427.042969 743.339844 C 459.761719 752.464844 494.753906 759.324219 525.980469 759.324219 C 558.796875 759.324219 587.449219 751.761719 605 731.285156 C 593.632812 747.167969 571.480469 760.835938 528.851562 760.835938 " fill-opacity="1" fill-rule="nonzero"/><path fill="#428e96" d="M 395.34375 740.109375 L 395.339844 740.109375 C 395.339844 740.109375 395.34375 740.105469 395.34375 740.105469 C 368.710938 729.671875 339.015625 715.941406 305.964844 698.128906 C 305.972656 698.128906 305.972656 698.128906 305.972656 698.128906 C 306.65625 698.460938 350.527344 719.570312 405.4375 736.90625 C 402.019531 738.019531 398.652344 739.082031 395.34375 740.109375 " fill-opacity="1" fill-rule="nonzero"/><path fill="#428e96" d="M 405.835938 645.753906 L 331.148438 640.691406 C 330.585938 638.023438 329.921875 635.714844 329.3125 633.855469 L 438.199219 643.5625 L 405.835938 645.753906 " fill-opacity="1" fill-rule="nonzero"/><path fill="#428e96" d="M 405.835938 645.753906 L 331.148438 640.691406 L 405.835938 645.753906 " fill-opacity="1" fill-rule="nonzero"/><path fill="#428e96" d="M 482.769531 650.976562 L 405.835938 645.753906 L 438.199219 643.5625 L 483.078125 647.566406 C 482.992188 648.417969 482.921875 649.292969 482.871094 650.183594 L 482.769531 650.976562 " fill-opacity="1" fill-rule="nonzero"/><path fill="#ba9688" d="M 331.148438 640.691406 L 329.304688 633.855469 C 329.921875 635.714844 330.585938 638.023438 331.148438 640.691406 " fill-opacity="1" fill-rule="nonzero"/><path fill="#ba9688" d="M 482.871094 650.183594 C 482.921875 649.292969 482.992188 648.417969 483.078125 647.566406 L 483.195312 647.574219 L 482.871094 650.183594 " fill-opacity="1" fill-rule="nonzero"/><path fill="#428e96" d="M 294.867188 775.816406 C 266.738281 775.816406 235.554688 766.921875 205.265625 740.269531 L 206.695312 731.320312 C 206.695312 731.320312 206.695312 731.324219 206.699219 731.324219 C 214.976562 742.871094 228.96875 753.246094 252.398438 758.035156 C 266.015625 762.796875 282.476562 766.273438 301.519531 766.273438 C 328.035156 766.273438 359.535156 759.535156 395.324219 740.117188 L 395.335938 740.117188 C 394.609375 740.699219 350.773438 775.816406 294.867188 775.816406 " fill-opacity="1" fill-rule="nonzero"/><path fill="#428e96" d="M 252.398438 758.035156 C 228.96875 753.246094 214.976562 742.871094 206.699219 731.324219 C 206.96875 731.601562 223.105469 747.789062 252.398438 758.035156 M 395.324219 740.117188 C 395.332031 740.117188 395.335938 740.109375 395.34375 740.105469 C 395.339844 740.109375 395.339844 740.109375 395.339844 740.109375 C 395.339844 740.109375 395.335938 740.117188 395.335938 740.117188 L 395.324219 740.117188 " fill-opacity="1" fill-rule="nonzero"/><path fill="#39737d" d="M 395.339844 740.109375 C 395.34375 740.105469 395.34375 740.105469 395.34375 740.105469 C 395.34375 740.105469 395.339844 740.109375 395.339844 740.109375 " fill-opacity="1" fill-rule="nonzero"/><path fill="#45a1a8" d="M 271.328125 462.179688 C 271.328125 462.179688 222.847656 489.148438 268.289062 539.03125 C 268.289062 539.03125 309.484375 588.792969 405.964844 515.035156 C 405.964844 515.035156 358.578125 516.355469 348.632812 487.324219 C 348.632812 487.324219 307.03125 482.695312 271.328125 462.179688 " fill-opacity="1" fill-rule="nonzero"/><path fill="#45a1a8" d="M 539.625 461.074219 C 539.625 461.074219 589.085938 489.148438 543.640625 539.03125 C 543.640625 539.03125 502.445312 588.792969 405.964844 515.035156 C 405.964844 515.035156 453.550781 515.460938 463.5 486.429688 C 463.5 486.429688 503.71875 480.960938 539.625 461.074219 " fill-opacity="1" fill-rule="nonzero"/><path fill="#45a1a8" d="M 334.96875 625.210938 C 334.859375 625.210938 334.75 625.207031 334.640625 625.195312 C 332.703125 625.015625 331.273438 623.304688 331.453125 621.363281 C 339.089844 538.097656 377.234375 515.667969 378.851562 514.753906 C 380.550781 513.789062 382.699219 514.390625 383.65625 516.09375 C 384.613281 517.785156 384.019531 519.929688 382.332031 520.890625 C 381.867188 521.160156 345.734375 542.914062 338.476562 622.011719 C 338.308594 623.835938 336.769531 625.210938 334.96875 625.210938 " fill-opacity="1" fill-rule="nonzero"/><path fill="#c2c3c4" d="M 333.261719 637.121094 C 329.621094 636.777344 326.925781 633.515625 327.273438 629.875 L 328.285156 619.207031 C 328.632812 615.566406 331.890625 612.875 335.53125 613.21875 C 339.171875 613.566406 341.867188 616.820312 341.519531 620.460938 L 340.507812 631.136719 C 340.164062 634.773438 336.902344 637.46875 333.261719 637.121094 " fill-opacity="1" fill-rule="nonzero"/><path fill="#45a1a8" d="M 477.492188 625.210938 C 477.601562 625.210938 477.710938 625.207031 477.820312 625.195312 C 479.757812 625.015625 481.1875 623.304688 481.007812 621.363281 C 473.371094 538.097656 435.230469 515.667969 433.609375 514.753906 C 431.910156 513.789062 429.761719 514.390625 428.804688 516.09375 C 427.847656 517.785156 428.445312 519.929688 430.132812 520.890625 C 430.597656 521.160156 466.726562 542.914062 473.984375 622.011719 C 474.152344 623.835938 475.691406 625.210938 477.492188 625.210938 " fill-opacity="1" fill-rule="nonzero"/><path fill="#c2c3c4" d="M 479.199219 637.121094 C 482.839844 636.777344 485.535156 633.515625 485.1875 629.875 L 484.175781 619.207031 C 483.828125 615.566406 480.570312 612.875 476.929688 613.21875 C 473.289062 613.566406 470.59375 616.820312 470.941406 620.460938 L 471.953125 631.136719 C 472.300781 634.773438 475.558594 637.46875 479.199219 637.121094 " fill-opacity="1" fill-rule="nonzero"/><path fill="#edb59a" d="M 198.03125 336.488281 C 198.03125 336.488281 169.050781 304.078125 145.4375 337.359375 C 145.4375 337.359375 129.628906 364.113281 160.671875 397.117188 C 160.671875 397.117188 174.675781 412.296875 203.894531 407.722656 L 215.46875 405.101562 L 198.03125 336.488281 " fill-opacity="1" fill-rule="nonzero"/><path fill="#edb59a" d="M 613.136719 330.511719 C 613.136719 330.511719 641.171875 297.285156 665.734375 329.875 C 665.734375 329.875 682.300781 356.15625 652.222656 390.046875 C 652.222656 390.046875 638.660156 405.617188 609.324219 401.886719 L 597.675781 399.601562 L 613.136719 330.511719 " fill-opacity="1" fill-rule="nonzero"/><path fill="#f4bea7" d="M 635.613281 269.730469 C 633.644531 132.4375 528.664062 22.628906 401.136719 24.464844 C 273.609375 26.300781 171.832031 139.082031 173.804688 276.375 C 174.394531 317.296875 184.195312 355.746094 200.960938 389.558594 L 200.605469 389.332031 C 200.605469 389.332031 201.140625 512.699219 391.621094 521.160156 C 402.621094 521.929688 413.964844 521.769531 424.9375 520.679688 C 615.097656 506.742188 612.082031 383.414062 612.082031 383.414062 L 611.730469 383.648438 C 627.519531 349.367188 636.207031 310.65625 635.613281 269.730469 " fill-opacity="1" fill-rule="nonzero"/><path fill="#ba9688" d="M 410.710938 383.265625 C 406.277344 383.265625 393.414062 375.0625 398.707031 362.230469 C 402.167969 353.851562 404.804688 351.542969 406.65625 351.542969 C 408.925781 351.542969 410.019531 355.003906 410.019531 355.003906 C 410.019531 355.003906 396.351562 365.972656 409.039062 377.851562 C 412.996094 381.570312 412.722656 383.265625 410.710938 383.265625 " fill-opacity="1" fill-rule="nonzero"/><path fill="#654525" d="M 478.238281 257.652344 C 478.632812 258.007812 482.269531 261.25 488.085938 264.8125 C 495.808594 269.542969 507.941406 275.183594 521.867188 275.183594 C 526.34375 275.183594 530.78125 274.597656 535.058594 273.433594 C 536.320312 273.085938 537.375 272.277344 538.027344 271.132812 C 538.675781 269.996094 538.847656 268.671875 538.5 267.402344 C 537.914062 265.273438 535.96875 263.789062 533.765625 263.789062 C 533.335938 263.789062 532.902344 263.847656 532.476562 263.964844 C 529.121094 264.875 525.609375 265.335938 522.042969 265.335938 C 501.859375 265.335938 485.003906 250.542969 484.824219 250.378906 C 483.910156 249.554688 482.742188 249.101562 481.527344 249.101562 C 480.152344 249.101562 478.828125 249.691406 477.898438 250.71875 C 477.019531 251.691406 476.570312 252.949219 476.632812 254.253906 C 476.695312 255.5625 477.261719 256.765625 478.238281 257.652344 " fill-opacity="1" fill-rule="nonzero"/><path fill="#654525" d="M 274.726562 273.433594 C 279 274.597656 283.4375 275.183594 287.914062 275.183594 C 301.839844 275.183594 313.972656 269.542969 321.699219 264.8125 C 327.566406 261.214844 331.160156 257.996094 331.542969 257.652344 C 333.546875 255.835938 333.703125 252.726562 331.886719 250.722656 C 330.957031 249.691406 329.632812 249.101562 328.253906 249.101562 C 327.042969 249.101562 325.871094 249.554688 324.941406 250.394531 C 324.777344 250.546875 307.949219 265.335938 287.738281 265.335938 C 284.171875 265.335938 280.664062 264.875 277.300781 263.964844 C 276.878906 263.847656 276.449219 263.789062 276.019531 263.789062 C 273.8125 263.789062 271.867188 265.273438 271.28125 267.410156 C 270.570312 270.023438 272.117188 272.722656 274.726562 273.433594 " fill-opacity="1" fill-rule="nonzero"/><path fill="#654525" d="M 330.203125 332.242188 C 330.339844 345.773438 319.480469 356.84375 305.945312 356.980469 C 292.417969 357.113281 281.335938 346.253906 281.203125 332.722656 C 281.070312 319.191406 291.933594 308.117188 305.464844 307.984375 C 318.996094 307.851562 330.070312 318.710938 330.203125 332.242188 " fill-opacity="1" fill-rule="nonzero"/><path fill="#654525" d="M 527.398438 330.289062 C 527.53125 343.820312 516.667969 354.898438 503.140625 355.03125 C 489.605469 355.167969 478.527344 344.304688 478.394531 330.777344 C 478.261719 317.25 489.125 306.167969 502.65625 306.039062 C 516.1875 305.902344 527.261719 316.761719 527.398438 330.289062 " fill-opacity="1" fill-rule="nonzero"/><path fill="#f68894" d="M 302.128906 406.363281 C 302.296875 425.113281 287.226562 440.449219 268.476562 440.617188 C 249.722656 440.785156 234.382812 425.71875 234.21875 406.96875 C 234.050781 388.210938 249.117188 372.875 267.871094 372.710938 C 286.625 372.546875 301.964844 387.613281 302.128906 406.363281 " fill-opacity="1" fill-rule="nonzero"/><path fill="#f68894" d="M 575.566406 403.929688 C 575.734375 422.679688 560.664062 438.019531 541.914062 438.183594 C 523.15625 438.351562 507.820312 423.285156 507.652344 404.535156 C 507.488281 385.785156 522.554688 370.449219 541.308594 370.277344 C 560.0625 370.109375 575.398438 385.179688 575.566406 403.929688 " fill-opacity="1" fill-rule="nonzero"/><path fill="#dc575d" d="M 397.882812 450.453125 C 396.675781 450.453125 395.402344 450.265625 394.058594 449.824219 C 390.640625 448.714844 388.097656 446.589844 385.855469 444.722656 C 383.582031 442.824219 381.621094 441.191406 379.039062 440.636719 C 374.382812 439.636719 369.394531 440.988281 366.320312 444.066406 C 364.933594 445.453125 362.6875 445.464844 361.292969 444.074219 C 359.902344 442.6875 359.898438 440.445312 361.285156 439.046875 C 366.089844 434.226562 373.46875 432.167969 380.53125 433.683594 C 384.828125 434.609375 387.789062 437.078125 390.40625 439.261719 C 392.410156 440.9375 394.144531 442.382812 396.261719 443.066406 C 399.207031 444.015625 401.65625 442.226562 405.394531 439.222656 C 406.640625 438.226562 407.871094 437.242188 409.109375 436.433594 C 415.609375 432.167969 424.101562 431.359375 431.289062 434.367188 C 433.441406 435.265625 435.332031 436.324219 437.15625 437.351562 C 440.890625 439.453125 443.847656 441.058594 447.90625 440.894531 C 449.851562 440.742188 451.539062 442.292969 451.644531 444.25 C 451.75 446.214844 450.242188 447.886719 448.28125 447.988281 C 442.1875 448.351562 437.84375 445.902344 433.671875 443.550781 C 432.042969 442.632812 430.382812 441.695312 428.550781 440.925781 C 423.597656 438.867188 417.5 439.425781 413.011719 442.382812 C 411.949219 443.070312 410.90625 443.914062 409.847656 444.765625 C 406.621094 447.355469 402.765625 450.453125 397.882812 450.453125 " fill-opacity="1" fill-rule="nonzero"/><path fill="#f06f3b" d="M 611.144531 136.015625 C 636.996094 132.59375 658.605469 117.625 658.605469 117.625 C 627.019531 117.625 568.394531 73.917969 550.375 59.878906 C 548.96875 58.738281 547.546875 57.617188 546.113281 56.515625 C 545.378906 55.925781 544.949219 55.578125 544.949219 55.578125 L 544.980469 55.664062 C 532.632812 46.300781 519.257812 38.230469 504.957031 31.683594 C 527.042969 16.917969 531.023438 0.0507812 531.023438 0.0507812 C 509.273438 14.746094 438.1875 14.609375 438.1875 14.609375 L 438.195312 14.609375 C 427.6875 14.117188 416.859375 14.671875 405.800781 16.574219 C 401.425781 17.328125 396.203125 16.480469 391.753906 16.636719 C 379.652344 17.0625 367.558594 18.28125 355.605469 20.230469 C 320.019531 26.027344 284.316406 39.082031 256.320312 62.363281 C 245.984375 70.953125 236.878906 80.878906 228.683594 91.578125 L 228.695312 91.515625 C 228.695312 91.515625 195.910156 133.5 147.703125 151.722656 C 147.703125 151.722656 168.046875 160.425781 189.429688 160.328125 C 174.929688 193.507812 166.453125 229.570312 167.816406 265.890625 C 168.183594 275.699219 169.261719 285.480469 171.0625 295.128906 C 172.003906 300.15625 173.136719 305.148438 174.460938 310.09375 C 175.15625 312.671875 177.308594 321.121094 178.691406 323.851562 C 178.695312 323.84375 230.328125 186.992188 330.996094 139.960938 C 330.996094 139.960938 383.859375 234.65625 544.949219 240.535156 C 544.949219 240.535156 579.714844 260.933594 591.085938 291.714844 C 591.085938 291.714844 597.625 269.300781 579.316406 212.859375 C 579.316406 212.859375 619.914062 258.582031 632.203125 315.671875 C 632.203125 315.671875 656.503906 243.03125 618.15625 151.171875 C 616.003906 146.023438 613.632812 140.988281 611.144531 136.015625 " fill-opacity="1" fill-rule="nonzero"/><path fill="#a8a9ab" d="M 156.542969 686.472656 C 156.992188 687.578125 157.289062 688.820312 157.386719 690.214844 C 157.640625 693.757812 156.640625 696.875 155.757812 699.628906 C 154.863281 702.417969 154.09375 704.820312 154.546875 707.390625 C 155.359375 712.03125 158.449219 716.105469 162.410156 717.777344 C 164.195312 718.535156 165.039062 720.589844 164.289062 722.378906 C 163.535156 724.171875 161.476562 725.007812 159.679688 724.257812 C 153.476562 721.644531 148.851562 715.644531 147.617188 708.605469 C 146.867188 704.324219 148.03125 700.695312 149.058594 697.480469 C 149.847656 695.023438 150.527344 692.902344 150.375 690.703125 C 150.152344 687.648438 147.601562 686.074219 143.457031 683.761719 C 142.078125 682.996094 140.722656 682.226562 139.519531 681.390625 C 133.199219 677.019531 129.300781 669.535156 129.386719 661.832031 C 129.410156 659.523438 129.679688 657.402344 129.945312 655.34375 C 130.484375 651.140625 130.859375 647.835938 129.199219 644.171875 C 128.332031 642.445312 129.132812 640.324219 130.886719 639.496094 C 132.648438 638.675781 134.742188 639.433594 135.566406 641.195312 C 138.15625 646.652344 137.523438 651.539062 136.921875 656.230469 C 136.6875 658.066406 136.441406 659.941406 136.421875 661.90625 C 136.367188 667.207031 139.148438 672.59375 143.519531 675.609375 C 144.550781 676.328125 145.710938 676.964844 146.886719 677.625 C 150.457031 679.617188 154.726562 682.003906 156.542969 686.472656 " fill-opacity="1" fill-rule="nonzero"/><path fill="#a8a9ab" d="M 136.824219 732.980469 C 137.273438 734.089844 137.570312 735.332031 137.667969 736.71875 C 137.917969 740.269531 136.917969 743.386719 136.039062 746.132812 C 135.144531 748.925781 134.375 751.324219 134.828125 753.902344 C 135.640625 758.542969 138.734375 762.617188 142.695312 764.28125 C 144.476562 765.039062 145.324219 767.101562 144.570312 768.886719 C 143.816406 770.679688 141.757812 771.519531 139.964844 770.765625 C 133.757812 768.148438 129.132812 762.148438 127.898438 755.117188 C 127.148438 750.832031 128.316406 747.199219 129.34375 743.992188 C 130.128906 741.535156 130.808594 739.410156 130.65625 737.214844 C 130.433594 734.160156 127.886719 732.582031 123.738281 730.273438 C 122.359375 729.5 121.007812 728.738281 119.796875 727.902344 C 113.480469 723.527344 109.582031 716.039062 109.667969 708.335938 C 109.691406 706.03125 109.964844 703.90625 110.226562 701.847656 C 110.765625 697.648438 111.140625 694.339844 109.480469 690.683594 C 108.613281 688.957031 109.414062 686.828125 111.167969 686.007812 C 112.929688 685.183594 115.023438 685.941406 115.847656 687.703125 C 118.4375 693.15625 117.804688 698.042969 117.207031 702.746094 C 116.96875 704.578125 116.722656 706.449219 116.703125 708.410156 C 116.652344 713.714844 119.429688 719.097656 123.800781 722.113281 C 124.832031 722.832031 125.992188 723.472656 127.167969 724.128906 C 130.742188 726.125 135.011719 728.511719 136.824219 732.980469 " fill-opacity="1" fill-rule="nonzero"/><path fill="#a8a9ab" d="M 157.46875 525.027344 C 157.144531 526.179688 156.625 527.34375 155.855469 528.507812 C 153.894531 531.472656 151.199219 533.335938 148.824219 534.976562 C 146.414062 536.640625 144.335938 538.074219 143.128906 540.394531 C 140.945312 544.5625 140.910156 549.675781 143.03125 553.417969 C 143.984375 555.101562 143.398438 557.253906 141.710938 558.210938 C 140.023438 559.167969 137.878906 558.578125 136.914062 556.886719 C 133.59375 551.035156 133.582031 543.460938 136.894531 537.128906 C 138.914062 533.28125 142.050781 531.109375 144.824219 529.195312 C 146.945312 527.726562 148.78125 526.457031 150 524.621094 C 151.683594 522.0625 150.628906 519.261719 148.75 514.902344 C 148.128906 513.449219 147.519531 512.023438 147.070312 510.621094 C 144.730469 503.300781 146.207031 494.992188 150.972656 488.941406 C 152.398438 487.125 153.90625 485.605469 155.371094 484.136719 C 158.359375 481.136719 160.675781 478.742188 161.589844 474.832031 C 161.953125 472.9375 163.886719 471.738281 165.777344 472.160156 C 167.675781 472.582031 168.871094 474.457031 168.453125 476.351562 C 167.179688 482.253906 163.695312 485.742188 160.359375 489.101562 C 159.050781 490.410156 157.714844 491.742188 156.503906 493.289062 C 153.226562 497.460938 152.144531 503.417969 153.769531 508.476562 C 154.152344 509.675781 154.679688 510.886719 155.214844 512.125 C 156.828125 515.886719 158.757812 520.378906 157.46875 525.027344 " fill-opacity="1" fill-rule="nonzero"/><path fill="#a8a9ab" d="M 116.539062 558.777344 C 116.21875 559.933594 115.695312 561.089844 114.925781 562.253906 C 112.957031 565.214844 110.257812 567.074219 107.882812 568.714844 C 105.46875 570.371094 103.390625 571.808594 102.175781 574.117188 C 99.984375 578.285156 99.941406 583.398438 102.058594 587.140625 C 103.007812 588.832031 102.421875 590.980469 100.730469 591.933594 C 99.035156 592.890625 96.894531 592.296875 95.9375 590.601562 C 92.621094 584.742188 92.625 577.167969 95.949219 570.839844 C 97.972656 566.996094 101.113281 564.835938 103.890625 562.925781 C 106.015625 561.460938 107.851562 560.191406 109.070312 558.363281 C 110.761719 555.804688 109.707031 553 107.839844 548.640625 C 107.21875 547.1875 106.617188 545.75 106.167969 544.351562 C 103.839844 537.03125 105.328125 528.722656 110.105469 522.679688 C 111.53125 520.867188 113.046875 519.351562 114.511719 517.886719 C 117.503906 514.886719 119.820312 512.496094 120.746094 508.589844 C 121.113281 506.691406 123.042969 505.496094 124.9375 505.917969 C 126.835938 506.34375 128.027344 508.21875 127.605469 510.117188 C 126.324219 516.015625 122.832031 519.5 119.492188 522.855469 C 118.179688 524.160156 116.839844 525.492188 115.625 527.035156 C 112.347656 531.199219 111.253906 537.15625 112.875 542.222656 C 113.25 543.417969 113.777344 544.632812 114.308594 545.875 C 115.917969 549.632812 117.835938 554.128906 116.539062 558.777344 " fill-opacity="1" fill-rule="nonzero"/><path fill="#a8a9ab" d="M 654.28125 686.472656 C 653.832031 687.578125 653.53125 688.820312 653.433594 690.214844 C 653.179688 693.757812 654.183594 696.875 655.066406 699.628906 C 655.960938 702.417969 656.726562 704.820312 656.273438 707.390625 C 655.464844 712.03125 652.367188 716.105469 648.40625 717.777344 C 646.625 718.535156 645.78125 720.589844 646.53125 722.378906 C 647.289062 724.171875 649.347656 725.007812 651.140625 724.257812 C 657.34375 721.644531 661.96875 715.644531 663.207031 708.605469 C 663.953125 704.324219 662.789062 700.695312 661.757812 697.480469 C 660.972656 695.023438 660.292969 692.902344 660.449219 690.703125 C 660.667969 687.648438 663.21875 686.074219 667.367188 683.761719 C 668.742188 682.996094 670.097656 682.226562 671.304688 681.390625 C 677.625 677.019531 681.515625 669.535156 681.429688 661.832031 C 681.410156 659.523438 681.140625 657.402344 680.875 655.34375 C 680.339844 651.140625 679.960938 647.835938 681.621094 644.171875 C 682.488281 642.445312 681.6875 640.324219 679.929688 639.496094 C 678.167969 638.675781 676.078125 639.433594 675.253906 641.195312 C 672.667969 646.652344 673.300781 651.539062 673.898438 656.230469 C 674.128906 658.066406 674.378906 659.941406 674.402344 661.90625 C 674.449219 667.207031 671.671875 672.59375 667.300781 675.609375 C 666.269531 676.328125 665.113281 676.964844 663.9375 677.625 C 660.359375 679.617188 656.097656 682.003906 654.28125 686.472656 " fill-opacity="1" fill-rule="nonzero"/><path fill="#a8a9ab" d="M 673.996094 732.980469 C 673.546875 734.089844 673.25 735.332031 673.152344 736.71875 C 672.902344 740.269531 673.898438 743.386719 674.777344 746.132812 C 675.675781 748.925781 676.449219 751.324219 675.992188 753.902344 C 675.179688 758.542969 672.089844 762.617188 668.128906 764.28125 C 666.34375 765.039062 665.496094 767.101562 666.25 768.886719 C 667.003906 770.679688 669.066406 771.519531 670.851562 770.765625 C 677.0625 768.148438 681.6875 762.148438 682.921875 755.117188 C 683.671875 750.832031 682.507812 747.199219 681.480469 743.992188 C 680.691406 741.535156 680.011719 739.410156 680.167969 737.214844 C 680.382812 734.160156 682.9375 732.582031 687.078125 730.273438 C 688.464844 729.5 689.816406 728.738281 691.023438 727.902344 C 697.339844 723.527344 701.238281 716.039062 701.152344 708.335938 C 701.128906 706.03125 700.859375 703.90625 700.589844 701.847656 C 700.054688 697.648438 699.683594 694.339844 701.335938 690.683594 C 702.203125 688.957031 701.40625 686.828125 699.652344 686.007812 C 697.890625 685.183594 695.792969 685.941406 694.972656 687.703125 C 692.382812 693.15625 693.015625 698.042969 693.613281 702.746094 C 693.851562 704.578125 694.097656 706.449219 694.121094 708.410156 C 694.167969 713.714844 691.394531 719.097656 687.019531 722.113281 C 685.988281 722.832031 684.828125 723.472656 683.652344 724.128906 C 680.082031 726.125 675.808594 728.511719 673.996094 732.980469 " fill-opacity="1" fill-rule="nonzero"/><path fill="#a8a9ab" d="M 653.359375 525.027344 C 653.671875 526.179688 654.195312 527.34375 654.96875 528.507812 C 656.925781 531.472656 659.621094 533.335938 661.996094 534.976562 C 664.40625 536.640625 666.484375 538.074219 667.695312 540.394531 C 669.875 544.5625 669.90625 549.675781 667.792969 553.417969 C 666.835938 555.101562 667.425781 557.253906 669.109375 558.210938 C 670.800781 559.167969 672.941406 558.578125 673.90625 556.886719 C 677.230469 551.035156 677.234375 543.460938 673.925781 537.128906 C 671.910156 533.28125 668.769531 531.109375 666 529.195312 C 663.871094 527.726562 662.039062 526.457031 660.824219 524.621094 C 659.136719 522.0625 660.195312 519.261719 662.074219 514.902344 C 662.695312 513.449219 663.300781 512.023438 663.753906 510.621094 C 666.089844 503.300781 664.617188 494.992188 659.847656 488.941406 C 658.421875 487.125 656.910156 485.605469 655.453125 484.136719 C 652.460938 481.136719 650.148438 478.742188 649.234375 474.832031 C 648.867188 472.9375 646.933594 471.738281 645.042969 472.160156 C 643.140625 472.582031 641.949219 474.457031 642.367188 476.351562 C 643.644531 482.253906 647.128906 485.742188 650.464844 489.101562 C 651.769531 490.410156 653.105469 491.742188 654.320312 493.289062 C 657.589844 497.460938 658.679688 503.417969 657.046875 508.476562 C 656.667969 509.675781 656.136719 510.886719 655.609375 512.125 C 653.988281 515.886719 652.0625 520.378906 653.359375 525.027344 " fill-opacity="1" fill-rule="nonzero"/><g clip-path="url(#49dd648552)"><path fill="#a8a9ab" d="M 694.28125 558.777344 C 694.601562 559.933594 695.125 561.089844 695.898438 562.253906 C 697.863281 565.214844 700.5625 567.074219 702.941406 568.714844 C 705.351562 570.371094 707.433594 571.808594 708.640625 574.117188 C 710.839844 578.285156 710.875 583.398438 708.765625 587.140625 C 707.816406 588.832031 708.402344 590.980469 710.085938 591.933594 C 711.78125 592.890625 713.925781 592.296875 714.882812 590.601562 C 718.199219 584.742188 718.191406 577.167969 714.871094 570.839844 C 712.851562 566.996094 709.707031 564.835938 706.933594 562.925781 C 704.808594 561.460938 702.96875 560.191406 701.75 558.363281 C 700.058594 555.804688 701.113281 553 702.980469 548.640625 C 703.601562 547.1875 704.207031 545.75 704.65625 544.351562 C 706.980469 537.03125 705.492188 528.722656 700.714844 522.679688 C 699.289062 520.867188 697.777344 519.351562 696.3125 517.886719 C 693.316406 514.886719 691 512.496094 690.078125 508.589844 C 689.710938 506.691406 687.773438 505.496094 685.886719 505.917969 C 683.984375 506.34375 682.792969 508.21875 683.214844 510.117188 C 684.496094 516.015625 687.984375 519.5 691.332031 522.855469 C 692.640625 524.160156 693.980469 525.492188 695.195312 527.035156 C 698.476562 531.199219 699.566406 537.15625 697.949219 542.222656 C 697.570312 543.417969 697.042969 544.632812 696.511719 545.875 C 694.90625 549.632812 692.980469 554.128906 694.28125 558.777344 " fill-opacity="1" fill-rule="nonzero"/></g></svg>