<svg xmlns="http://www.w3.org/2000/svg" xmlns:xlink="http://www.w3.org/1999/xlink" width="1080" zoomAndPan="magnify" viewBox="0 0 810 809.999993" height="1080" preserveAspectRatio="xMidYMid meet" version="1.0"><path fill="#f36856" d="M 810.039062 405 C 810.039062 628.6875 628.6875 810.039062 405 810.039062 C 181.3125 810.039062 -0.0390625 628.6875 -0.0390625 405 C -0.0390625 181.3125 181.3125 -0.0390625 405 -0.0390625 C 628.6875 -0.0390625 810.039062 181.3125 810.039062 405 " fill-opacity="1" fill-rule="nonzero"/><path fill="#fef2d0" d="M 733.042969 405 C 733.042969 586.1875 586.1875 733.042969 405 733.042969 C 223.8125 733.042969 76.957031 586.1875 76.957031 405 C 76.957031 223.8125 223.8125 76.957031 405 76.957031 C 586.1875 76.957031 733.042969 223.8125 733.042969 405 " fill-opacity="1" fill-rule="nonzero"/><path stroke-linecap="butt" transform="matrix(0.408266, 0, 0, -0.408266, -462.973773, 1272.97378)" fill="none" stroke-linejoin="miter" d="M 2126.000029 2838.502538 L 2126.000029 2723.496361 " stroke="#24537c" stroke-width="50" stroke-opacity="1" stroke-miterlimit="10"/><path stroke-linecap="butt" transform="matrix(0.408266, 0, 0, -0.408266, -462.973773, 1272.97378)" fill="none" stroke-linejoin="miter" d="M 2126.000029 1528.503729 L 2126.000029 1413.497552 " stroke="#24537c" stroke-width="50" stroke-opacity="1" stroke-miterlimit="10"/><path stroke-linecap="butt" transform="matrix(0.408266, 0, 0, -0.408266, -462.973773, 1272.97378)" fill="none" stroke-linejoin="miter" d="M 2838.502522 2126.000045 L 2723.496345 2126.000045 " stroke="#24537c" stroke-width="50" stroke-opacity="1" stroke-miterlimit="10"/><path stroke-linecap="butt" transform="matrix(0.408266, 0, 0, -0.408266, -462.973773, 1272.97378)" fill="none" stroke-linejoin="miter" d="M 1528.503713 2126.000045 L 1413.497536 2126.000045 " stroke="#24537c" stroke-width="50" stroke-opacity="1" stroke-miterlimit="10"/><path stroke-linecap="butt" transform="matrix(0.408266, 0, 0, -0.408266, -462.973773, 1272.97378)" fill="none" stroke-linejoin="miter" d="M 2489.101893 2738.996362 L 2430.498496 2640.102532 " stroke="#24537c" stroke-width="50" stroke-opacity="1" stroke-miterlimit="10"/><path stroke-linecap="butt" transform="matrix(0.408266, 0, 0, -0.408266, -462.973773, 1272.97378)" fill="none" stroke-linejoin="miter" d="M 1821.501562 1611.897559 L 1762.898165 1512.898482 " stroke="#24537c" stroke-width="50" stroke-opacity="1" stroke-miterlimit="10"/><path stroke-linecap="butt" transform="matrix(0.408266, 0, 0, -0.408266, -462.973773, 1272.97378)" fill="none" stroke-linejoin="miter" d="M 2730.796654 2502.697897 L 2633.204058 2441.798204 " stroke="#24537c" stroke-width="50" stroke-opacity="1" stroke-miterlimit="10"/><path stroke-linecap="butt" transform="matrix(0.408266, 0, 0, -0.408266, -462.973773, 1272.97378)" fill="none" stroke-linejoin="miter" d="M 1618.796 1810.09664 L 1521.203404 1749.302193 " stroke="#24537c" stroke-width="50" stroke-opacity="1" stroke-miterlimit="10"/><path stroke-linecap="butt" transform="matrix(0.408266, 0, 0, -0.408266, -462.973773, 1272.97378)" fill="none" stroke-linejoin="miter" d="M 2758.897581 1798.796948 L 2656.798503 1851.602197 " stroke="#24537c" stroke-width="50" stroke-opacity="1" stroke-miterlimit="10"/><path stroke-linecap="butt" transform="matrix(0.408266, 0, 0, -0.408266, -462.973773, 1272.97378)" fill="none" stroke-linejoin="miter" d="M 1595.201554 2400.397894 L 1493.102477 2453.203143 " stroke="#24537c" stroke-width="50" stroke-opacity="1" stroke-miterlimit="10"/><path stroke-linecap="butt" transform="matrix(0.408266, 0, 0, -0.408266, -462.973773, 1272.97378)" fill="none" stroke-linejoin="miter" d="M 2500.401584 1519.796939 L 2439.999422 1617.695707 " stroke="#24537c" stroke-width="50" stroke-opacity="1" stroke-miterlimit="10"/><path stroke-linecap="butt" transform="matrix(0.408266, 0, 0, -0.408266, -462.973773, 1272.97378)" fill="none" stroke-linejoin="miter" d="M 1812.000636 2634.304383 L 1751.598473 2732.203152 " stroke="#24537c" stroke-width="50" stroke-opacity="1" stroke-miterlimit="10"/><path stroke-linecap="butt" transform="matrix(0.408266, 0, 0, -0.408266, -462.973773, 1272.97378)" fill="none" stroke-linejoin="miter" d="M 2126.000029 2571.998208 L 2126.000029 2213.498505 " stroke="#24537c" stroke-width="50" stroke-opacity="1" stroke-miterlimit="10"/><path stroke-linecap="butt" transform="matrix(0.408266, 0, 0, -0.408266, -462.973773, 1272.97378)" fill="none" stroke-linejoin="miter" d="M 2087.795398 2047.399734 L 1751.598473 1717.000958 " stroke="#24537c" stroke-width="50" stroke-opacity="1" stroke-miterlimit="10"/><path stroke-linecap="butt" transform="matrix(0.408266, 0, 0, -0.408266, -462.973773, 1272.97378)" fill="none" stroke-linejoin="miter" d="M 2213.498488 2126.000045 C 2213.498488 2077.701278 2174.298796 2038.501586 2126.000029 2038.501586 C 2077.701262 2038.501586 2038.501569 2077.701278 2038.501569 2126.000045 C 2038.501569 2174.298812 2077.701262 2213.498505 2126.000029 2213.498505 C 2174.298796 2213.498505 2213.498488 2174.298812 2213.498488 2126.000045 Z M 2213.498488 2126.000045 " stroke="#d7282f" stroke-width="50" stroke-opacity="1" stroke-miterlimit="10"/></svg>