<svg xmlns="http://www.w3.org/2000/svg" xmlns:xlink="http://www.w3.org/1999/xlink" width="1080" zoomAndPan="magnify" viewBox="0 0 810 809.999993" height="1080" preserveAspectRatio="xMidYMid meet" version="1.0"><defs><clipPath id="c2490ce94b"><path d="M 280.460938 0 L 529.460938 0 L 529.460938 810 L 280.460938 810 Z M 280.460938 0 " clip-rule="nonzero"/></clipPath></defs><g clip-path="url(#c2490ce94b)"><path fill="#e3e2e0" d="M 467.164062 577.289062 L 467.164062 62.632812 C 467.164062 28.257812 439.308594 0.394531 404.941406 0.394531 C 370.578125 0.394531 342.710938 28.257812 342.710938 62.632812 L 342.710938 577.289062 C 305.53125 598.816406 280.492188 639.007812 280.492188 685.078125 C 280.492188 753.832031 336.210938 809.566406 404.941406 809.566406 C 473.675781 809.566406 529.394531 753.832031 529.394531 685.078125 C 529.394531 639.007812 504.355469 598.816406 467.164062 577.289062 " fill-opacity="1" fill-rule="nonzero"/></g><path fill="#c72227" d="M 404.941406 726.90625 C 381.847656 726.90625 363.128906 708.183594 363.128906 685.078125 L 363.128906 218.246094 C 363.128906 195.144531 381.847656 176.417969 404.941406 176.417969 C 428.039062 176.417969 446.757812 195.144531 446.757812 218.246094 L 446.757812 685.078125 C 446.757812 708.183594 428.039062 726.90625 404.941406 726.90625 " fill-opacity="1" fill-rule="nonzero"/><path fill="#e72931" d="M 494.726562 685.078125 C 494.726562 734.683594 454.53125 774.890625 404.941406 774.890625 C 355.355469 774.890625 315.15625 734.683594 315.15625 685.078125 C 315.15625 635.476562 355.355469 595.269531 404.941406 595.269531 C 454.53125 595.269531 494.726562 635.476562 494.726562 685.078125 " fill-opacity="1" fill-rule="nonzero"/><path fill="#8ca2ac" d="M 436.058594 288.859375 L 404.941406 288.859375 C 400.320312 288.859375 396.582031 285.109375 396.582031 280.492188 C 396.582031 275.867188 400.320312 272.128906 404.941406 272.128906 L 436.058594 272.128906 C 440.671875 272.128906 444.421875 275.867188 444.421875 280.492188 C 444.421875 285.109375 440.671875 288.859375 436.058594 288.859375 " fill-opacity="1" fill-rule="nonzero"/><path fill="#8ca2ac" d="M 436.058594 226.632812 L 404.941406 226.632812 C 400.320312 226.632812 396.582031 222.894531 396.582031 218.269531 C 396.582031 213.652344 400.320312 209.902344 404.941406 209.902344 L 436.058594 209.902344 C 440.671875 209.902344 444.421875 213.652344 444.421875 218.269531 C 444.421875 222.894531 440.671875 226.632812 436.058594 226.632812 " fill-opacity="1" fill-rule="nonzero"/><path fill="#8ca2ac" d="M 436.058594 164.417969 L 404.941406 164.417969 C 400.320312 164.417969 396.582031 160.667969 396.582031 156.054688 C 396.582031 151.429688 400.320312 147.6875 404.941406 147.6875 L 436.058594 147.6875 C 440.671875 147.6875 444.421875 151.429688 444.421875 156.054688 C 444.421875 160.667969 440.671875 164.417969 436.058594 164.417969 " fill-opacity="1" fill-rule="nonzero"/><path fill="#8ca2ac" d="M 436.058594 102.195312 L 404.941406 102.195312 C 400.320312 102.195312 396.582031 98.453125 396.582031 93.832031 C 396.582031 89.214844 400.320312 85.464844 404.941406 85.464844 L 436.058594 85.464844 C 440.671875 85.464844 444.421875 89.214844 444.421875 93.832031 C 444.421875 98.453125 440.671875 102.195312 436.058594 102.195312 " fill-opacity="1" fill-rule="nonzero"/><path fill="#8ca2ac" d="M 436.058594 351.097656 L 404.941406 351.097656 C 400.320312 351.097656 396.582031 347.355469 396.582031 342.734375 C 396.582031 338.117188 400.320312 334.367188 404.941406 334.367188 L 436.058594 334.367188 C 440.671875 334.367188 444.421875 338.117188 444.421875 342.734375 C 444.421875 347.355469 440.671875 351.097656 436.058594 351.097656 " fill-opacity="1" fill-rule="nonzero"/><path fill="#8ca2ac" d="M 436.058594 413.34375 L 404.941406 413.34375 C 400.320312 413.34375 396.582031 409.597656 396.582031 404.980469 C 396.582031 400.355469 400.320312 396.617188 404.941406 396.617188 L 436.058594 396.617188 C 440.671875 396.617188 444.421875 400.355469 444.421875 404.980469 C 444.421875 409.597656 440.671875 413.34375 436.058594 413.34375 " fill-opacity="1" fill-rule="nonzero"/><path fill="#8ca2ac" d="M 436.058594 475.585938 L 404.941406 475.585938 C 400.320312 475.585938 396.582031 471.84375 396.582031 467.21875 C 396.582031 462.605469 400.320312 458.855469 404.941406 458.855469 L 436.058594 458.855469 C 440.671875 458.855469 444.421875 462.605469 444.421875 467.21875 C 444.421875 471.84375 440.671875 475.585938 436.058594 475.585938 " fill-opacity="1" fill-rule="nonzero"/><path fill="#8ca2ac" d="M 436.058594 537.832031 L 404.941406 537.832031 C 400.320312 537.832031 396.582031 534.09375 396.582031 529.46875 C 396.582031 524.851562 400.320312 521.101562 404.941406 521.101562 L 436.058594 521.101562 C 440.671875 521.101562 444.421875 524.851562 444.421875 529.46875 C 444.421875 534.09375 440.671875 537.832031 436.058594 537.832031 " fill-opacity="1" fill-rule="nonzero"/></svg>