<?xml version="1.0" encoding="UTF-8" standalone="no"?>
<svg
   width="400"
   height="340"
   fill-rule="evenodd"
   image-rendering="optimizeQuality"
   shape-rendering="geometricPrecision"
   text-rendering="geometricPrecision"
   viewBox="0 0 27.980713 23.783594"
   version="1.1"
   id="svg39"
   xmlns="http://www.w3.org/2000/svg">
  <defs
     id="defs39" />
  <path
     d="M 4.8931061,0.20635924 H 20.125034 c 2.581483,0 4.686746,2.10009046 4.686746,4.67418036 V 18.903081 c 0,2.57409 -2.105736,4.67418 -4.686746,4.67418 H 4.8931061 c -2.5810103,0 -4.68674686,-2.099666 -4.68674686,-4.67418 V 4.8805396 c 0,-2.5745614 2.10531106,-4.67418036 4.68674686,-4.67418036 z"
     fill="#00923f"
     stroke="#00923f"
     stroke-width="0.412698"
     id="path1" />
  <path
     d="M 27.155154,16.566179 H 24.81178"
     fill="none"
     stroke="#e77817"
     stroke-linecap="round"
     stroke-width="1.65112"
     id="path2" />
  <path
     d="M 27.155154,14.226825 H 24.81178"
     fill="none"
     stroke="#e77817"
     stroke-linecap="round"
     stroke-width="1.65112"
     id="path3" />
  <path
     d="M 27.155154,9.5547199 H 24.81178"
     fill="none"
     stroke="#e77817"
     stroke-linecap="round"
     stroke-width="1.65112"
     id="path4" />
  <path
     d="M 27.155154,11.88983 H 24.81178"
     fill="none"
     stroke="#e77817"
     stroke-linecap="round"
     stroke-width="1.65112"
     id="path5" />
  <path
     d="M 27.155154,7.2158382 H 24.81178"
     fill="none"
     stroke="#e77817"
     stroke-linecap="round"
     stroke-width="1.65112"
     id="path6" />
  <path
     d="M 27.155154,4.8788424 H 24.81178"
     fill="none"
     stroke="#e77817"
     stroke-linecap="round"
     stroke-width="1.65112"
     id="path7" />
  <path
     d="M 27.155154,18.902232 H 24.81178"
     fill="none"
     stroke="#e77817"
     stroke-linecap="round"
     stroke-width="1.65112"
     id="path8" />
  <path
     d="m 19.062545,14.94617 c -1.135145,0 -2.102002,-0.398143 -2.902272,-1.196361 -0.800269,-0.798218 -1.199577,-1.762388 -1.199577,-2.89449 0,-1.1321015 0.399214,-2.0942913 1.199577,-2.8926038 0.800365,-0.7983125 1.767127,-1.1963608 2.902272,-1.1963608 1.135145,0 2.100111,0.3981425 2.900381,1.1963608 0.800269,0.7982182 1.199577,1.7623881 1.199577,2.8926038 0,1.130216 -0.399213,2.092642 -1.199577,2.89086 -0.800364,0.798218 -1.767126,1.199991 -2.900381,1.199991 z"
     fill="#ffffff"
     fill-rule="nonzero"
     stroke="#383431"
     stroke-width="0.0873071"
     id="path9" />
  <path
     d="m 19.062545,14.674376 c 1.055586,0 1.958106,-0.373485 2.705667,-1.118758 0.747561,-0.745275 1.121768,-1.645327 1.121768,-2.700299 0,-1.0549716 -0.37449,-1.9528552 -1.121768,-2.6981763 -0.747277,-0.7453211 -1.650081,-1.1189954 -2.705667,-1.1189954 -1.055586,0 -1.959996,0.3737214 -2.707321,1.1189954 -0.747325,0.745274 -1.122004,1.6454204 -1.122004,2.6981763 0,1.052756 0.37449,1.954977 1.122004,2.700299 0.747514,0.745321 1.649844,1.118758 2.707321,1.118758 z"
     fill="#ffffff"
     fill-opacity="0.50196"
     fill-rule="nonzero"
     stroke="#383431"
     stroke-opacity="0.50196"
     stroke-width="0.0436435"
     id="path10" />
  <path
     d="m 16.273821,12.244269 0.187339,0.326246 -0.325468,0.186979 -0.188994,-0.324644 z"
     fill="#383431"
     fill-rule="nonzero"
     stroke="#383431"
     stroke-width="0.0891772"
     id="path11" />
  <path
     d="M 21.671682,9.1382378 21.99318,8.949562 22.182269,9.2760437 21.860771,9.4628808 Z"
     fill="#383431"
     fill-rule="nonzero"
     stroke="#383431"
     stroke-width="0.0891772"
     id="path12" />
  <path
     d="m 20.45712,13.636566 0.321498,-0.186602 0.189089,0.324361 -0.32164,0.188864 z"
     fill="#383431"
     fill-rule="nonzero"
     stroke="#383431"
     stroke-width="0.0891772"
     id="path13" />
  <path
     d="M 17.336877,8.2534606 17.149773,7.9325422 17.477133,7.7456108 17.66452,8.0665764 Z"
     fill="#383431"
     fill-rule="nonzero"
     stroke="#383431"
     stroke-width="0.0891772"
     id="path14" />
  <path
     d="m 17.342738,13.449964 0.327407,0.186602 -0.189372,0.326623 -0.325232,-0.188864 z"
     fill="#383431"
     fill-rule="nonzero"
     stroke="#383431"
     stroke-width="0.0891772"
     id="path15" />
  <path
     d="m 20.45712,8.0665764 0.188947,-0.3209656 0.327407,0.1869314 -0.189231,0.3263873 z"
     fill="#383431"
     fill-rule="nonzero"
     stroke="#383431"
     stroke-width="0.0891772"
     id="path16" />
  <path
     d="m 21.66029,12.570515 0.189136,-0.326246 0.327453,0.188581 -0.189324,0.324644 z"
     fill="#383431"
     fill-rule="nonzero"
     stroke="#383431"
     stroke-width="0.0891772"
     id="path17" />
  <path
     d="M 16.268196,9.4628808 15.940932,9.2760437 16.130067,8.949562 16.455535,9.1382378 Z"
     fill="#383431"
     fill-rule="nonzero"
     stroke="#383431"
     stroke-width="0.0891772"
     id="path18" />
  <path
     d="m 18.873315,13.957437 h 0.376617 v 0.375607 h -0.376617 z"
     fill="#383431"
     fill-rule="nonzero"
     stroke="#383431"
     stroke-width="0.0891772"
     id="path19" />
  <path
     d="m 22.176879,11.044042 v -0.37556 h 0.376476 v 0.37556 z"
     fill="#383431"
     fill-rule="nonzero"
     stroke="#383431"
     stroke-width="0.0891772"
     id="path20" />
  <path
     d="m 15.940932,11.044042 h -0.376429 v -0.37556 h 0.376429 z"
     fill="#383431"
     fill-rule="nonzero"
     stroke="#383431"
     stroke-width="0.0891772"
     id="path21" />
  <path
     d="m 18.84722,7.5057822 h 0.37657 v 0.3756072 h -0.37657 z"
     fill="#383431"
     fill-rule="nonzero"
     stroke="#383431"
     stroke-width="0.0891772"
     id="path22" />
  <path
     d="m 22.488356,9.8905836 -0.790815,0.7230684 -0.07568,-0.265004 -2.301869,0.653812 -0.394864,0.112159 -0.395005,0.112159 -0.112461,-0.393759 0.394959,-0.112206 0.394863,-0.112159 L 21.5094,9.9547013 21.43476,9.6935631 Z"
     fill="#e77817"
     fill-rule="nonzero"
     id="path23"
     style="stroke-width:4.72087" />
  <path
     d="M 4.8931061,1.3749044 H 9.579853 c 1.935982,0 3.515061,1.5752209 3.515061,3.5056352 V 18.903081 c 0,1.930461 -1.579457,3.505635 -3.515061,3.505635 H 4.8931061 c -1.9356514,0 -3.5150601,-1.574844 -3.5150601,-3.505635 V 4.8804453 c 0,-1.9307914 1.5790778,-3.5054939 3.5150601,-3.5054939 z"
     fill="#4d4948"
     stroke="#4d4948"
     stroke-width="0.825491"
     id="path24" />
  <path
     d="m 1.378046,16.566179 4.5287161,-4.967236 v 3.305126 L 13.094961,7.2179598"
     fill="none"
     stroke="#dededd"
     stroke-width="1.23833"
     id="path25" />
  <path
     d="m 8.4081662,3.7119945 h 2.3433728 c 0.645359,0 1.171687,0.5249165 1.171687,1.1685451 V 18.903081 c 0,0.643628 -0.526328,1.168545 -1.171687,1.168545 H 8.4081662 c -0.6453588,0 -1.1716866,-0.524917 -1.1716866,-1.168545 V 4.8805396 c 0,-0.6436286 0.5263278,-1.1685451 1.1716866,-1.1685451 z"
     fill="#ffffff"
     stroke="#838281"
     stroke-width="0.0873071"
     id="path26" />
  <path
     d="M 8.4079772,8.3859863 H 10.75135"
     fill="none"
     stroke="#007cc3"
     stroke-linecap="round"
     stroke-width="0.825491"
     id="path27" />
  <path
     d="M 8.4079772,9.5547199 9.5796639,9.5544843"
     fill="none"
     stroke="#605d5c"
     stroke-linecap="round"
     stroke-width="0.825491"
     id="path28" />
  <path
     d="m 8.4079772,10.723453 1.1716867,-2.35e-4"
     fill="none"
     stroke="#605d5c"
     stroke-linecap="round"
     stroke-width="0.825491"
     id="path29" />
  <path
     d="M 8.4079772,11.891245 H 10.75135"
     fill="none"
     stroke="#007cc3"
     stroke-linecap="round"
     stroke-width="0.825491"
     id="path30" />
  <path
     d="m 8.4079772,13.059978 1.1716867,2.36e-4"
     fill="none"
     stroke="#605d5c"
     stroke-linecap="round"
     stroke-width="0.825491"
     id="path31" />
  <path
     d="m 8.4079772,14.228711 1.1716867,2.37e-4"
     fill="none"
     stroke="#605d5c"
     stroke-linecap="round"
     stroke-width="0.825491"
     id="path32" />
  <path
     d="M 8.4079772,15.396974 H 10.75135"
     fill="none"
     stroke="#007cc3"
     stroke-linecap="round"
     stroke-width="0.825491"
     id="path33" />
  <path
     d="m 8.4079772,16.565708 1.1716867,2.35e-4"
     fill="none"
     stroke="#605d5c"
     stroke-linecap="round"
     stroke-width="0.825491"
     id="path34" />
  <path
     d="m 8.4079772,17.734441 1.1716867,2.36e-4"
     fill="none"
     stroke="#605d5c"
     stroke-linecap="round"
     stroke-width="0.825491"
     id="path35" />
  <path
     d="M 8.4079772,4.8807282 H 10.75135"
     fill="none"
     stroke="#007cc3"
     stroke-linecap="round"
     stroke-width="0.825491"
     id="path36" />
  <path
     d="M 8.4079772,6.0494618 9.5796639,6.0489904"
     fill="none"
     stroke="#605d5c"
     stroke-linecap="round"
     stroke-width="0.825491"
     id="path37" />
  <path
     d="M 8.4079772,7.2181955 9.5796639,7.2177241"
     fill="none"
     stroke="#605d5c"
     stroke-linecap="round"
     stroke-width="0.825491"
     id="path38" />
  <path
     d="M 8.4079772,18.902704 H 10.75135"
     fill="none"
     stroke="#007cc3"
     stroke-linecap="round"
     stroke-width="0.825491"
     id="path39" />
</svg>
