<svg xmlns="http://www.w3.org/2000/svg" xmlns:xlink="http://www.w3.org/1999/xlink" width="1080" zoomAndPan="magnify" viewBox="0 0 810 809.999993" height="1080" preserveAspectRatio="xMidYMid meet" version="1.0"><path fill="#a0ceff" d="M 699.367188 468.878906 C 699.367188 236.71875 405 0 405 0 C 405 0 110.632812 236.71875 110.632812 468.878906 C 110.632812 701.035156 275.183594 810 405 810 C 535.0625 808.871094 699.367188 701.085938 699.367188 468.878906 Z M 699.367188 468.878906 " fill-opacity="1" fill-rule="nonzero"/><path fill="#d9e6ff" d="M 515.4375 182.3125 C 515.4375 182.988281 515.402344 183.664062 515.335938 184.335938 C 515.269531 185.007812 515.171875 185.675781 515.039062 186.339844 C 514.90625 187.003906 514.742188 187.660156 514.546875 188.308594 C 514.351562 188.953125 514.125 189.589844 513.863281 190.214844 C 513.605469 190.839844 513.316406 191.453125 512.996094 192.046875 C 512.679688 192.644531 512.332031 193.222656 511.957031 193.785156 C 511.578125 194.347656 511.175781 194.890625 510.75 195.414062 C 510.320312 195.9375 509.867188 196.4375 509.386719 196.917969 C 508.910156 197.394531 508.40625 197.847656 507.886719 198.277344 C 507.363281 198.707031 506.820312 199.109375 506.257812 199.484375 C 505.695312 199.859375 505.113281 200.207031 504.519531 200.527344 C 503.921875 200.847656 503.3125 201.136719 502.6875 201.394531 C 502.0625 201.652344 501.425781 201.878906 500.777344 202.078125 C 500.128906 202.273438 499.476562 202.4375 498.8125 202.570312 C 498.148438 202.699219 497.480469 202.800781 496.804688 202.867188 C 496.132812 202.933594 495.457031 202.964844 494.78125 202.964844 C 494.105469 202.964844 493.429688 202.933594 492.757812 202.867188 C 492.085938 202.800781 491.414062 202.699219 490.753906 202.570312 C 490.089844 202.4375 489.433594 202.273438 488.785156 202.078125 C 488.140625 201.878906 487.503906 201.652344 486.878906 201.394531 C 486.253906 201.136719 485.640625 200.847656 485.046875 200.527344 C 484.449219 200.207031 483.871094 199.859375 483.308594 199.484375 C 482.746094 199.109375 482.203125 198.707031 481.679688 198.277344 C 481.15625 197.847656 480.65625 197.394531 480.175781 196.917969 C 479.699219 196.4375 479.246094 195.9375 478.816406 195.414062 C 478.386719 194.890625 477.984375 194.347656 477.609375 193.785156 C 477.230469 193.222656 476.886719 192.644531 476.566406 192.046875 C 476.246094 191.453125 475.957031 190.839844 475.699219 190.214844 C 475.441406 189.589844 475.214844 188.953125 475.015625 188.308594 C 474.820312 187.660156 474.65625 187.003906 474.523438 186.339844 C 474.390625 185.675781 474.292969 185.007812 474.226562 184.335938 C 474.160156 183.664062 474.128906 182.988281 474.128906 182.3125 C 474.128906 181.636719 474.160156 180.960938 474.226562 180.285156 C 474.292969 179.613281 474.390625 178.945312 474.523438 178.28125 C 474.65625 177.617188 474.820312 176.964844 475.015625 176.316406 C 475.214844 175.667969 475.441406 175.03125 475.699219 174.40625 C 475.957031 173.78125 476.246094 173.171875 476.566406 172.574219 C 476.886719 171.976562 477.230469 171.398438 477.609375 170.835938 C 477.984375 170.273438 478.386719 169.730469 478.816406 169.207031 C 479.246094 168.683594 479.699219 168.183594 480.175781 167.707031 C 480.65625 167.226562 481.15625 166.773438 481.679688 166.34375 C 482.203125 165.914062 482.746094 165.511719 483.308594 165.136719 C 483.871094 164.761719 484.449219 164.414062 485.046875 164.09375 C 485.640625 163.777344 486.253906 163.488281 486.878906 163.230469 C 487.503906 162.96875 488.140625 162.742188 488.785156 162.546875 C 489.433594 162.351562 490.089844 162.183594 490.753906 162.054688 C 491.414062 161.921875 492.085938 161.824219 492.757812 161.757812 C 493.429688 161.691406 494.105469 161.65625 494.78125 161.65625 C 495.457031 161.65625 496.132812 161.691406 496.804688 161.757812 C 497.480469 161.824219 498.148438 161.921875 498.8125 162.054688 C 499.476562 162.183594 500.128906 162.347656 500.777344 162.546875 C 501.425781 162.742188 502.0625 162.96875 502.6875 163.230469 C 503.3125 163.488281 503.921875 163.777344 504.519531 164.09375 C 505.113281 164.414062 505.695312 164.761719 506.257812 165.136719 C 506.820312 165.511719 507.363281 165.914062 507.886719 166.34375 C 508.40625 166.773438 508.910156 167.226562 509.386719 167.707031 C 509.867188 168.183594 510.320312 168.683594 510.75 169.207031 C 511.175781 169.730469 511.578125 170.273438 511.957031 170.835938 C 512.332031 171.398438 512.679688 171.976562 512.996094 172.574219 C 513.316406 173.171875 513.605469 173.78125 513.863281 174.40625 C 514.125 175.03125 514.351562 175.667969 514.546875 176.316406 C 514.742188 176.964844 514.90625 177.617188 515.039062 178.28125 C 515.171875 178.945312 515.269531 179.613281 515.335938 180.285156 C 515.402344 180.960938 515.4375 181.636719 515.4375 182.3125 Z M 515.4375 182.3125 " fill-opacity="1" fill-rule="nonzero"/><path fill="#d9e6ff" d="M 603.207031 348.285156 C 596.484375 348.285156 590.253906 344.015625 588.097656 337.246094 C 585.9375 330.625 583.484375 323.949219 580.785156 317.476562 C 567.246094 285.09375 546.492188 255.070312 519.164062 228.234375 C 512.886719 222.101562 512.835938 212.042969 518.96875 205.761719 C 525.152344 199.484375 535.160156 199.433594 541.4375 205.566406 C 571.757812 235.394531 594.867188 268.90625 610.074219 305.160156 C 613.117188 312.46875 615.914062 319.976562 618.316406 327.484375 C 621.015625 335.824219 616.40625 344.800781 608.0625 347.453125 C 606.445312 348.039062 604.828125 348.285156 603.207031 348.285156 Z M 603.207031 348.285156 " fill-opacity="1" fill-rule="nonzero"/><path fill="#7cb2ff" d="M 159.546875 408.484375 C 153.070312 432.425781 149.390625 456.660156 149.390625 480.847656 C 149.390625 682.441406 292.257812 777.078125 405 777.078125 C 517.9375 776.097656 660.609375 682.488281 660.609375 480.847656 C 660.609375 456.660156 656.929688 432.425781 650.453125 408.484375 C 650.453125 408.484375 565.527344 439.046875 427.125 391.261719 C 259.238281 333.320312 159.546875 408.484375 159.546875 408.484375 Z M 159.546875 408.484375 " fill-opacity="1" fill-rule="nonzero"/><path fill="#ffffff" d="M 479.035156 454.40625 C 468.730469 447.683594 454.746094 450.527344 447.78125 460.636719 L 324.980469 645.398438 C 318.261719 655.703125 321.105469 669.683594 331.210938 676.457031 C 334.792969 679.007812 338.816406 680.332031 343.871094 680.332031 C 351.472656 680.332031 358.195312 676.75 362.808594 670.226562 L 485.609375 485.65625 C 491.839844 475.355469 489.1875 461.371094 479.035156 454.40625 Z M 479.035156 454.40625 " fill-opacity="1" fill-rule="nonzero"/><path fill="#ffffff" d="M 321.105469 457.984375 C 286.859375 457.984375 259.191406 485.851562 259.191406 519.902344 C 259.191406 554 287.058594 581.816406 321.105469 581.816406 C 355.054688 582.011719 383.019531 554.34375 383.019531 519.902344 C 383.019531 485.65625 355.152344 457.984375 321.105469 457.984375 Z M 321.105469 544.433594 C 307.566406 544.433594 296.574219 533.441406 296.574219 519.902344 C 296.574219 506.359375 307.566406 495.371094 321.105469 495.371094 C 334.644531 495.371094 345.636719 506.359375 345.636719 519.902344 C 345.636719 533.441406 334.644531 544.433594 321.105469 544.433594 Z M 321.105469 544.433594 " fill-opacity="1" fill-rule="nonzero"/><path fill="#ffffff" d="M 550.761719 617.289062 C 550.761719 583.335938 522.894531 555.324219 488.992188 555.324219 C 454.746094 555.324219 427.078125 583.191406 427.078125 617.238281 C 427.078125 651.484375 454.945312 679.152344 488.992188 679.152344 C 505.871094 679.152344 521.226562 672.578125 533.050781 660.953125 C 544.726562 649.277344 551.105469 633.476562 550.761719 617.289062 Z M 488.945312 641.769531 C 475.402344 641.769531 464.414062 630.78125 464.414062 617.238281 C 464.414062 603.699219 475.402344 592.707031 488.945312 592.707031 C 502.484375 592.707031 513.472656 603.699219 513.472656 617.238281 C 513.472656 630.78125 502.484375 641.769531 488.945312 641.769531 Z M 488.945312 641.769531 " fill-opacity="1" fill-rule="nonzero"/></svg>