<svg xmlns="http://www.w3.org/2000/svg" xmlns:xlink="http://www.w3.org/1999/xlink" width="1080" zoomAndPan="magnify" viewBox="0 0 810 809.999993" height="1080" preserveAspectRatio="xMidYMid meet" version="1.0"><path fill="#629eed" d="M 643.21875 497.660156 C 644.710938 499.964844 646.667969 501.652344 649.070312 502.121094 C 683.269531 508.902344 715.59375 493.554688 738.9375 474.289062 C 753.789062 462.03125 765.519531 446.03125 772.992188 428.320312 C 780.511719 410.5 783.769531 390.914062 781.628906 371.59375 C 778.835938 346.390625 767.019531 321.75 743.730469 302.140625 C 756.117188 285.65625 762.9375 267.28125 764.988281 248.753906 C 767.410156 226.882812 763.160156 204.867188 753.5625 185.570312 C 743.964844 166.28125 728.949219 149.617188 709.835938 138.441406 C 693.589844 128.945312 674.476562 123.460938 653.320312 123.742188 C 650.492188 100.597656 640.925781 80.65625 627.132812 64.941406 C 616.347656 52.660156 603 42.980469 588.292969 36.398438 C 573.621094 29.835938 557.558594 26.339844 541.3125 26.394531 C 520.5 26.464844 499.429688 32.308594 480.582031 44.925781 C 465.429688 24.773438 445.132812 11.734375 423.226562 5.453125 C 408.585938 1.257812 393.234375 0.101562 378.234375 1.871094 C 363.269531 3.636719 348.605469 8.351562 335.304688 15.902344 C 314.96875 27.445312 297.964844 45.550781 288.109375 69.800781 C 282.667969 68.835938 277.214844 68.28125 271.78125 68.117188 C 246.75 67.363281 222.738281 75.164062 203.1875 89.199219 C 183.613281 103.253906 168.503906 123.542969 161.296875 147.742188 C 160.101562 151.757812 159.125 155.898438 158.382812 160.148438 C 114.910156 151.117188 79.398438 167.417969 56.226562 194.78125 C 45.585938 207.351562 37.625 222.316406 32.78125 238.238281 C 27.941406 254.15625 26.21875 271.003906 28.050781 287.347656 C 31.929688 321.945312 51.269531 354.359375 89.972656 371.507812 C 83.1875 380.96875 78.183594 391.066406 74.824219 401.464844 C 68.316406 421.585938 68.015625 442.730469 72.917969 462.472656 C 77.8125 482.1875 87.894531 500.550781 102.160156 515.140625 C 114.113281 527.371094 129 536.972656 146.242188 542.546875 C 153.152344 544.765625 160.554688 540.960938 162.769531 534.050781 C 161.476562 527.699219 580.058594 503.445312 643.21875 497.660156 Z M 643.21875 497.660156 " fill-opacity="1" fill-rule="nonzero"/><path fill="#f5fafa" d="M 362.855469 142.121094 C 362.855469 134.84375 356.953125 128.941406 349.671875 128.941406 C 342.394531 128.941406 336.492188 134.84375 336.492188 142.121094 L 336.492188 235.34375 C 336.492188 242.621094 342.394531 248.519531 349.671875 248.519531 C 356.953125 248.519531 362.855469 242.621094 362.855469 235.34375 Z M 362.855469 142.121094 " fill-opacity="1" fill-rule="nonzero"/><path fill="#f5fafa" d="M 329.902344 186.808594 C 325.578125 180.980469 317.347656 179.757812 311.519531 184.078125 C 305.6875 188.402344 304.46875 196.628906 308.789062 202.457031 L 339.117188 243.167969 L 339.101562 243.214844 C 343.449219 249.050781 351.710938 250.257812 357.546875 245.910156 C 358.902344 244.898438 360.011719 243.679688 360.855469 242.324219 L 390.558594 202.457031 C 394.878906 196.628906 393.65625 188.402344 387.828125 184.078125 C 382 179.757812 373.769531 180.980469 369.445312 186.808594 L 349.671875 213.347656 Z M 329.902344 186.808594 " fill-opacity="1" fill-rule="nonzero"/><path fill="#f5fafa" d="M 446.75 235.34375 C 446.75 242.621094 452.652344 248.519531 459.929688 248.519531 C 467.210938 248.519531 473.113281 242.621094 473.113281 235.34375 L 473.113281 142.121094 C 473.113281 134.84375 467.210938 128.941406 459.929688 128.941406 C 452.652344 128.941406 446.75 134.84375 446.75 142.121094 Z M 446.75 235.34375 " fill-opacity="1" fill-rule="nonzero"/><path fill="#f5fafa" d="M 419.046875 175.003906 C 414.726562 180.832031 415.945312 189.0625 421.777344 193.382812 C 427.605469 197.703125 435.835938 196.484375 440.160156 190.65625 L 459.929688 164.113281 L 479.703125 190.65625 C 484.027344 196.484375 492.257812 197.703125 498.085938 193.382812 C 503.914062 189.0625 505.136719 180.832031 500.816406 175.003906 L 471.113281 135.136719 C 470.269531 133.785156 469.164062 132.5625 467.804688 131.550781 C 461.96875 127.207031 453.710938 128.410156 449.359375 134.25 L 449.375 134.296875 Z M 419.046875 175.003906 " fill-opacity="1" fill-rule="nonzero"/><path fill="#3b566a" d="M 215.234375 352.410156 C 263.75 303.90625 330.773438 273.902344 404.800781 273.902344 C 478.832031 273.902344 545.855469 303.90625 594.371094 352.410156 C 642.886719 400.914062 672.890625 467.925781 672.890625 541.941406 C 672.890625 615.953125 642.886719 682.964844 594.371094 731.46875 C 545.855469 779.976562 478.832031 809.976562 404.800781 809.976562 C 330.773438 809.976562 263.75 779.976562 215.234375 731.46875 C 166.71875 682.964844 136.710938 615.953125 136.710938 541.941406 C 136.710938 467.925781 166.71875 400.914062 215.234375 352.410156 Z M 215.234375 352.410156 " fill-opacity="1" fill-rule="nonzero"/><path fill="#fefefe" d="M 261.867188 399.035156 C 298.449219 362.460938 348.984375 339.839844 404.800781 339.839844 C 460.621094 339.839844 511.15625 362.460938 547.738281 399.035156 C 584.316406 435.609375 606.941406 486.132812 606.941406 541.941406 C 606.941406 597.746094 584.316406 648.273438 547.738281 684.84375 C 511.15625 721.417969 460.621094 744.039062 404.800781 744.039062 C 348.984375 744.039062 298.449219 721.417969 261.867188 684.84375 C 225.289062 648.273438 202.660156 597.746094 202.660156 541.941406 C 202.660156 486.132812 225.289062 435.609375 261.867188 399.035156 Z M 261.867188 399.035156 " fill-opacity="1" fill-rule="nonzero"/><path fill="#304c61" d="M 396.066406 340.027344 C 398.964844 339.90625 401.875 339.839844 404.800781 339.839844 C 407.730469 339.839844 410.640625 339.90625 413.539062 340.027344 L 413.539062 357.972656 C 413.539062 362.796875 409.625 366.710938 404.800781 366.710938 C 399.976562 366.710938 396.066406 362.796875 396.066406 357.972656 Z M 396.066406 340.027344 " fill-opacity="1" fill-rule="nonzero"/><path fill="#304c61" d="M 448.652344 344.613281 C 454.367188 345.875 459.992188 347.378906 465.511719 349.117188 L 460.855469 366.496094 C 459.609375 371.148438 454.828125 373.914062 450.171875 372.671875 C 445.519531 371.425781 442.753906 366.644531 443.996094 361.992188 Z M 448.652344 344.613281 " fill-opacity="1" fill-rule="nonzero"/><path fill="#304c61" d="M 498.261719 362.699219 C 503.417969 365.390625 508.441406 368.296875 513.320312 371.40625 L 504.34375 386.953125 C 501.949219 391.117188 496.632812 392.554688 492.46875 390.160156 C 488.304688 387.769531 486.867188 382.453125 489.261719 378.289062 Z M 498.261719 362.699219 " fill-opacity="1" fill-rule="nonzero"/><path fill="#304c61" d="M 541.425781 392.992188 C 543.570312 394.960938 545.675781 396.976562 547.738281 399.035156 C 549.796875 401.09375 551.808594 403.199219 553.777344 405.34375 L 541.089844 418.03125 C 537.679688 421.441406 532.148438 421.441406 528.734375 418.03125 C 525.324219 414.621094 525.324219 409.089844 528.734375 405.679688 Z M 541.425781 392.992188 " fill-opacity="1" fill-rule="nonzero"/><path fill="#304c61" d="M 575.371094 433.441406 C 578.484375 438.320312 581.390625 443.34375 584.082031 448.496094 L 568.488281 457.496094 C 564.324219 459.890625 559.007812 458.453125 556.613281 454.289062 C 554.222656 450.125 555.65625 444.808594 559.820312 442.417969 Z M 575.371094 433.441406 " fill-opacity="1" fill-rule="nonzero"/><path fill="#304c61" d="M 597.667969 481.246094 C 599.402344 486.765625 600.910156 492.386719 602.171875 498.097656 L 584.789062 502.753906 C 580.132812 504 575.351562 501.234375 574.109375 496.582031 C 572.863281 491.925781 575.628906 487.144531 580.285156 485.902344 Z M 597.667969 481.246094 " fill-opacity="1" fill-rule="nonzero"/><path fill="#304c61" d="M 606.753906 533.207031 C 606.878906 536.105469 606.945312 539.015625 606.945312 541.941406 C 606.945312 544.871094 606.878906 547.78125 606.753906 550.675781 L 588.804688 550.675781 C 583.980469 550.675781 580.070312 546.765625 580.070312 541.941406 C 580.070312 537.117188 583.980469 533.207031 588.804688 533.207031 Z M 606.753906 533.207031 " fill-opacity="1" fill-rule="nonzero"/><path fill="#304c61" d="M 602.167969 585.78125 C 600.90625 591.496094 599.398438 597.117188 597.664062 602.636719 L 580.28125 597.980469 C 575.625 596.734375 572.859375 591.953125 574.105469 587.300781 C 575.347656 582.648438 580.128906 579.882812 584.785156 581.125 Z M 602.167969 585.78125 " fill-opacity="1" fill-rule="nonzero"/><path fill="#304c61" d="M 584.082031 635.382812 C 581.390625 640.535156 578.484375 645.558594 575.371094 650.4375 L 559.820312 641.460938 C 555.65625 639.070312 554.21875 633.753906 556.613281 629.589844 C 559.007812 625.425781 564.324219 623.988281 568.488281 626.382812 Z M 584.082031 635.382812 " fill-opacity="1" fill-rule="nonzero"/><path fill="#304c61" d="M 553.777344 678.535156 C 551.808594 680.683594 549.796875 682.789062 547.734375 684.847656 C 545.675781 686.90625 543.570312 688.917969 541.425781 690.886719 L 528.734375 678.199219 C 525.324219 674.789062 525.324219 669.261719 528.734375 665.851562 C 532.144531 662.4375 537.675781 662.4375 541.089844 665.851562 Z M 553.777344 678.535156 " fill-opacity="1" fill-rule="nonzero"/><path fill="#304c61" d="M 513.324219 712.472656 C 508.441406 715.582031 503.417969 718.488281 498.265625 721.179688 L 489.261719 705.589844 C 486.867188 701.425781 488.304688 696.109375 492.46875 693.71875 C 496.632812 691.324219 501.953125 692.761719 504.34375 696.925781 Z M 513.324219 712.472656 " fill-opacity="1" fill-rule="nonzero"/><path fill="#304c61" d="M 465.511719 734.761719 C 459.992188 736.496094 454.367188 738.003906 448.652344 739.265625 L 443.996094 721.886719 C 442.753906 717.234375 445.519531 712.453125 450.171875 711.207031 C 454.828125 709.964844 459.609375 712.730469 460.855469 717.382812 Z M 465.511719 734.761719 " fill-opacity="1" fill-rule="nonzero"/><path fill="#304c61" d="M 413.539062 743.851562 C 410.640625 743.976562 407.730469 744.042969 404.800781 744.042969 C 401.875 744.042969 398.964844 743.976562 396.066406 743.851562 L 396.066406 725.90625 C 396.066406 721.085938 399.976562 717.171875 404.800781 717.171875 C 409.625 717.171875 413.539062 721.085938 413.539062 725.90625 Z M 413.539062 743.851562 " fill-opacity="1" fill-rule="nonzero"/><path fill="#304c61" d="M 360.949219 739.269531 C 355.238281 738.003906 349.613281 736.5 344.09375 734.761719 L 348.75 717.386719 C 349.992188 712.730469 354.777344 709.964844 359.429688 711.210938 C 364.085938 712.453125 366.851562 717.234375 365.609375 721.890625 Z M 360.949219 739.269531 " fill-opacity="1" fill-rule="nonzero"/><path fill="#304c61" d="M 311.339844 721.179688 C 306.1875 718.488281 301.164062 715.582031 296.28125 712.472656 L 305.257812 696.921875 C 307.652344 692.757812 312.96875 691.324219 317.136719 693.71875 C 321.300781 696.109375 322.738281 701.425781 320.34375 705.589844 Z M 311.339844 721.179688 " fill-opacity="1" fill-rule="nonzero"/><path fill="#304c61" d="M 268.179688 690.886719 C 266.03125 688.917969 263.925781 686.90625 261.867188 684.847656 C 259.808594 682.789062 257.796875 680.683594 255.828125 678.535156 L 268.515625 665.847656 C 271.925781 662.4375 277.457031 662.4375 280.871094 665.847656 C 284.28125 669.257812 284.28125 674.789062 280.871094 678.199219 Z M 268.179688 690.886719 " fill-opacity="1" fill-rule="nonzero"/><path fill="#304c61" d="M 234.234375 650.441406 C 231.125 645.558594 228.214844 640.539062 225.523438 635.386719 L 241.117188 626.382812 C 245.28125 623.992188 250.601562 625.425781 252.992188 629.589844 C 255.386719 633.753906 253.949219 639.070312 249.785156 641.464844 Z M 234.234375 650.441406 " fill-opacity="1" fill-rule="nonzero"/><path fill="#304c61" d="M 211.941406 602.636719 C 210.203125 597.117188 208.699219 591.496094 207.433594 585.78125 L 224.816406 581.125 C 229.472656 579.882812 234.253906 582.648438 235.5 587.300781 C 236.742188 591.957031 233.976562 596.738281 229.320312 597.980469 Z M 211.941406 602.636719 " fill-opacity="1" fill-rule="nonzero"/><path fill="#304c61" d="M 202.851562 550.675781 C 202.726562 547.777344 202.660156 544.867188 202.660156 541.9375 C 202.660156 539.011719 202.726562 536.101562 202.851562 533.203125 L 220.800781 533.203125 C 225.625 533.203125 229.535156 537.117188 229.535156 541.9375 C 229.535156 546.761719 225.625 550.675781 220.800781 550.675781 Z M 202.851562 550.675781 " fill-opacity="1" fill-rule="nonzero"/><path fill="#304c61" d="M 207.433594 498.09375 C 208.699219 492.382812 210.203125 486.757812 211.941406 481.238281 L 229.320312 485.898438 C 233.976562 487.140625 236.742188 491.921875 235.5 496.574219 C 234.253906 501.230469 229.472656 503.996094 224.816406 502.75 Z M 207.433594 498.09375 " fill-opacity="1" fill-rule="nonzero"/><path fill="#304c61" d="M 225.523438 448.496094 C 228.214844 443.34375 231.125 438.320312 234.234375 433.441406 L 249.785156 442.417969 C 253.949219 444.808594 255.386719 450.125 252.992188 454.289062 C 250.601562 458.453125 245.28125 459.890625 241.117188 457.496094 Z M 225.523438 448.496094 " fill-opacity="1" fill-rule="nonzero"/><path fill="#304c61" d="M 261.867188 399.035156 C 263.925781 396.976562 266.03125 394.960938 268.179688 392.992188 L 280.871094 405.679688 C 284.28125 409.089844 284.28125 414.621094 280.871094 418.03125 C 277.457031 421.441406 271.925781 421.441406 268.515625 418.03125 L 255.828125 405.34375 C 257.796875 403.199219 259.808594 401.09375 261.867188 399.035156 Z M 261.867188 399.035156 " fill-opacity="1" fill-rule="nonzero"/><path fill="#304c61" d="M 296.28125 371.40625 C 301.164062 368.296875 306.1875 365.390625 311.339844 362.699219 L 320.34375 378.289062 C 322.738281 382.453125 321.300781 387.769531 317.136719 390.160156 C 312.96875 392.554688 307.652344 391.117188 305.257812 386.953125 Z M 296.28125 371.40625 " fill-opacity="1" fill-rule="nonzero"/><path fill="#304c61" d="M 344.09375 349.117188 C 349.613281 347.378906 355.238281 345.875 360.949219 344.613281 L 365.609375 361.992188 C 366.851562 366.644531 364.085938 371.425781 359.429688 372.671875 C 354.777344 373.914062 349.992188 371.148438 348.75 366.496094 Z M 344.09375 349.117188 " fill-opacity="1" fill-rule="nonzero"/><path fill="#ef5350" d="M 413.339844 394.046875 L 441.289062 503.402344 C 446.148438 508.003906 450.140625 513.515625 452.992188 519.664062 C 456.140625 526.460938 457.902344 534.007812 457.902344 541.941406 C 457.902344 556.597656 451.957031 569.871094 442.347656 579.480469 C 432.738281 589.085938 419.464844 595.027344 404.800781 595.027344 C 390.140625 595.027344 376.867188 589.085938 367.253906 579.480469 C 357.648438 569.871094 351.703125 556.597656 351.703125 541.941406 C 351.703125 534.007812 353.460938 526.460938 356.613281 519.664062 C 359.464844 513.515625 363.453125 508.003906 368.3125 503.402344 L 396.339844 393.761719 L 396.339844 393.75 C 397.53125 389.074219 402.289062 386.253906 406.964844 387.449219 C 410.273438 388.292969 412.652344 390.925781 413.339844 394.046875 Z M 413.339844 394.046875 " fill-opacity="1" fill-rule="nonzero"/><path fill="#fefefe" d="M 404.800781 514.78125 C 412.300781 514.78125 419.09375 517.820312 424.007812 522.734375 C 428.925781 527.652344 431.964844 534.441406 431.964844 541.9375 C 431.964844 549.4375 428.925781 556.226562 424.007812 561.144531 C 419.09375 566.058594 412.300781 569.097656 404.800781 569.097656 C 397.300781 569.097656 390.511719 566.058594 385.59375 561.144531 C 380.679688 556.226562 377.636719 549.4375 377.636719 541.9375 C 377.636719 534.441406 380.679688 527.652344 385.59375 522.734375 C 390.511719 517.820312 397.300781 514.78125 404.800781 514.78125 Z M 404.800781 514.78125 " fill-opacity="1" fill-rule="nonzero"/></svg>