<svg xmlns="http://www.w3.org/2000/svg" xmlns:xlink="http://www.w3.org/1999/xlink" width="1080" zoomAndPan="magnify" viewBox="0 0 810 809.999993" height="1080" preserveAspectRatio="xMidYMid meet" version="1.0"><defs><clipPath id="b613099fd5"><path d="M 212 12 L 265 12 L 265 218 L 212 218 Z M 212 12 " clip-rule="nonzero"/></clipPath><clipPath id="b9045b5892"><path d="M 245.234375 16.59375 C 249.335938 13.898438 278.679688 11.285156 290.917969 12.734375 C 337.421875 18.242188 364.195312 77.886719 410.8125 83.332031 C 446.457031 87.492188 476.167969 61.046875 508.484375 47.609375 C 545.746094 32.113281 584.433594 36.878906 617.953125 62.238281 C 631.222656 72.277344 646.039062 84.136719 655.949219 99.320312 C 657.5 101.691406 663.511719 111.238281 662.671875 114.886719 C 660.980469 122.230469 653.929688 126.25 648.472656 124.242188 C 620.210938 113.820312 598.640625 107.890625 570.078125 122.457031 C 519.191406 148.394531 476.121094 215.644531 419.386719 218.816406 C 370.785156 221.535156 335.140625 178.539062 288.726562 175.609375 C 274.203125 174.695312 259.523438 177.070312 245.101562 178.929688 C 241.058594 179.449219 209.457031 120.226562 212.898438 85.75 C 215.765625 57.035156 232.867188 24.742188 245.234375 16.59375 Z M 245.234375 16.59375 " clip-rule="evenodd"/></clipPath><clipPath id="bd03dff219"><path d="M 325 12 L 439 12 L 439 219 L 325 219 Z M 325 12 " clip-rule="nonzero"/></clipPath><clipPath id="f8d99b4f51"><path d="M 245.234375 16.59375 C 249.335938 13.898438 278.679688 11.285156 290.917969 12.734375 C 337.421875 18.242188 364.195312 77.886719 410.8125 83.332031 C 446.457031 87.492188 476.167969 61.046875 508.484375 47.609375 C 545.746094 32.113281 584.433594 36.878906 617.953125 62.238281 C 631.222656 72.277344 646.039062 84.136719 655.949219 99.320312 C 657.5 101.691406 663.511719 111.238281 662.671875 114.886719 C 660.980469 122.230469 653.929688 126.25 648.472656 124.242188 C 620.210938 113.820312 598.640625 107.890625 570.078125 122.457031 C 519.191406 148.394531 476.121094 215.644531 419.386719 218.816406 C 370.785156 221.535156 335.140625 178.539062 288.726562 175.609375 C 274.203125 174.695312 259.523438 177.070312 245.101562 178.929688 C 241.058594 179.449219 209.457031 120.226562 212.898438 85.75 C 215.765625 57.035156 232.867188 24.742188 245.234375 16.59375 Z M 245.234375 16.59375 " clip-rule="evenodd"/></clipPath><clipPath id="8dbde2d917"><path d="M 516 12 L 593 12 L 593 173 L 516 173 Z M 516 12 " clip-rule="nonzero"/></clipPath><clipPath id="559b1f6316"><path d="M 245.234375 16.59375 C 249.335938 13.898438 278.679688 11.285156 290.917969 12.734375 C 337.421875 18.242188 364.195312 77.886719 410.8125 83.332031 C 446.457031 87.492188 476.167969 61.046875 508.484375 47.609375 C 545.746094 32.113281 584.433594 36.878906 617.953125 62.238281 C 631.222656 72.277344 646.039062 84.136719 655.949219 99.320312 C 657.5 101.691406 663.511719 111.238281 662.671875 114.886719 C 660.980469 122.230469 653.929688 126.25 648.472656 124.242188 C 620.210938 113.820312 598.640625 107.890625 570.078125 122.457031 C 519.191406 148.394531 476.121094 215.644531 419.386719 218.816406 C 370.785156 221.535156 335.140625 178.539062 288.726562 175.609375 C 274.203125 174.695312 259.523438 177.070312 245.101562 178.929688 C 241.058594 179.449219 209.457031 120.226562 212.898438 85.75 C 215.765625 57.035156 232.867188 24.742188 245.234375 16.59375 Z M 245.234375 16.59375 " clip-rule="evenodd"/></clipPath><clipPath id="e544ffb6bd"><path d="M 146.304688 0 L 179 0 L 179 810 L 146.304688 810 Z M 146.304688 0 " clip-rule="nonzero"/></clipPath></defs><path fill="#e54e4e" d="M 245.234375 16.59375 C 249.335938 13.898438 278.679688 11.285156 290.917969 12.734375 C 337.421875 18.242188 364.195312 77.886719 410.8125 83.332031 C 446.457031 87.492188 476.167969 61.046875 508.484375 47.609375 C 545.746094 32.113281 584.433594 36.878906 617.953125 62.238281 C 631.222656 72.277344 646.039062 84.136719 655.949219 99.320312 C 657.5 101.691406 663.511719 111.238281 662.671875 114.886719 C 660.980469 122.230469 653.929688 126.25 648.472656 124.242188 C 620.210938 113.820312 598.640625 107.890625 570.078125 122.457031 C 519.191406 148.394531 476.121094 215.644531 419.386719 218.816406 C 370.785156 221.535156 335.140625 178.539062 288.726562 175.609375 C 274.203125 174.695312 259.523438 177.070312 245.101562 178.929688 C 241.058594 179.449219 209.457031 120.226562 212.898438 85.75 C 215.765625 57.035156 232.867188 24.742188 245.234375 16.59375 Z M 245.234375 16.59375 " fill-opacity="1" fill-rule="evenodd"/><g clip-path="url(#b613099fd5)"><g clip-path="url(#b9045b5892)"><path fill="#b43b3b" d="M 242.324219 2.042969 C 242.058594 1.140625 243.199219 3.675781 243.609375 4.507812 C 244.539062 6.40625 245.027344 7.496094 245.871094 9.546875 C 247.640625 13.84375 249.230469 18.230469 250.683594 22.667969 C 254.671875 34.828125 258.011719 47.289062 260.480469 59.9375 C 268.75 102.289062 266.25 151.386719 243.867188 188.25 C 238.972656 196.3125 233.332031 203.8125 227.351562 210.902344 C 226.449219 211.976562 222.90625 217.460938 221.335938 217.527344 C 218.722656 217.636719 213.328125 205.816406 212.375 204.128906 C 205.183594 191.394531 199.625 177.644531 195.027344 163.53125 C 175.453125 103.421875 181.910156 33.667969 222.4375 -14.527344 " fill-opacity="1" fill-rule="evenodd"/></g></g><g clip-path="url(#bd03dff219)"><g clip-path="url(#f8d99b4f51)"><path fill="#fce7d6" d="M 355.980469 32.5625 C 354.730469 32.90625 356.152344 35.40625 356.367188 36.808594 C 357.371094 43.375 357.992188 49.894531 358 56.570312 C 358.03125 74.300781 356.558594 92.152344 355.421875 109.824219 C 353.332031 142.441406 348.261719 174.253906 339.246094 205.429688 C 337.027344 213.097656 334.667969 220.960938 330.679688 227.765625 C 330.210938 228.5625 324.546875 234.636719 325.09375 235.5625 C 328.617188 241.527344 343.515625 245.152344 349.078125 247.714844 C 402.292969 272.234375 424.003906 231.148438 434.160156 176.066406 C 438.5625 152.203125 439.628906 127.371094 438.476562 103.082031 C 436.867188 69.140625 429.519531 34.785156 412.398438 6.355469 " fill-opacity="1" fill-rule="evenodd"/></g></g><g clip-path="url(#8dbde2d917)"><g clip-path="url(#559b1f6316)"><path fill="#fce7d6" d="M 516.84375 25.171875 C 526.199219 46.691406 533.136719 67.125 538.351562 90.648438 C 542.796875 110.78125 544.3125 130.761719 544.875 151.410156 C 544.957031 154.003906 543.503906 169.488281 545.640625 171.429688 C 548.445312 173.988281 563.074219 167.402344 566.066406 166.511719 C 572.421875 164.640625 581.667969 163.808594 585.550781 157.101562 C 598.972656 133.933594 588.960938 64.734375 580.730469 40.144531 C 577.160156 29.511719 572.710938 19.507812 566.832031 10.21875 C 564.878906 7.148438 562.863281 4.128906 560.808594 1.15625 C 559.5625 -0.628906 554.761719 -3.96875 556.796875 -3.96875 " fill-opacity="1" fill-rule="evenodd"/></g></g><path stroke-linecap="round" transform="matrix(2.566728, 0, 0, 1.945903, -1917.422252, -154.171247)" fill="none" stroke-linejoin="round" d="M 811.817581 130.849522 C 842.909569 88.934532 842.941528 89.249698 842.941528 89.249698 " stroke="#6e6563" stroke-width="1.13" stroke-opacity="1" stroke-miterlimit="1.5"/><path stroke-linecap="round" transform="matrix(2.736075, 0, 0, 2.562928, -2058.885373, -234.908054)" fill="none" stroke-linejoin="round" d="M 811.817623 130.849275 C 843.083898 161.095747 842.471421 160.329107 842.471421 160.329107 " stroke="#6e6563" stroke-width="0.97" stroke-opacity="1" stroke-miterlimit="1.5"/><path stroke-linecap="round" transform="matrix(1.976536, 0.00105274, -0.00107322, 2.024494, -1438.13642, -165.31002)" fill="none" stroke-linejoin="round" d="M 811.817145 130.849812 L 860.114246 130.849781 " stroke="#6e6563" stroke-width="1.29" stroke-opacity="1" stroke-miterlimit="1.5"/><g clip-path="url(#e544ffb6bd)"><path stroke-linecap="round" transform="matrix(2.024952, 0, 0, 2.024494, -10429.672992, -351.816495)" fill="none" stroke-linejoin="round" d="M 5231.800147 180.701095 C 5231.740347 191.025822 5229.780424 548.217767 5230.040847 567.014906 " stroke="#6e6563" stroke-width="13.72" stroke-opacity="1" stroke-miterlimit="1.5"/></g></svg>